<?xml version="1.0" encoding="utf-8"?>
<!-- Generator: Adobe Illustrator 19.0.0, SVG Export Plug-In . SVG Version: 6.00 Build 0)  -->
<svg version="1.1" id="Layer_1" xmlns="http://www.w3.org/2000/svg" xmlns:xlink="http://www.w3.org/1999/xlink" x="0px" y="0px"
	   viewBox="0 0 80 33.7" style="enable-background:new 0 0 80 33.7;" xml:space="preserve">
  <style type="text/css">
	 .st0{fill:#59CAEE;}
	 .st1{fill:#0D1E34;}
  </style>
  <g id="XMLID_59_">
	  <path id="XMLID_79_" class="st0" d="M15,25.1c-0.5,0.5-0.9,1-1.3,1.5h13.5l-5.6,5.6H0l5.6-5.6l16.5-16.5l3.9,3.9L25.1,15L15,25.1z"
		/>
	  <path id="XMLID_76_" class="st0" d="M65,17.2c0.5-0.5,0.9-1,1.3-1.5H52.8l5.6-5.6H80l-5.6,5.6L57.9,32.2L54,28.2l0.9-0.9L65,17.2z"
		/>

		<rect id="XMLID_75_" x="30.6" y="19" transform="matrix(-0.7408 -0.6718 0.6718 -0.7408 55.4133 63.7132)" class="st0" width="18.8" height="4.4"/>
	  <path id="XMLID_74_" class="st1" d="M35.7,29.4l1.2-1.2l3.1-3.1l2-2l2-2l3.8-3.8l5.1-5.1l4-4c-0.6-0.7-1.2-1.4-1.8-2.1
		          c-0.7-0.7-1.4-1.3-2.1-1.8c-0.7-0.6-1.5-1.1-2.4-1.6c-0.9-0.5-1.7-0.9-2.6-1.3C45.4,0.5,42.7,0,40,0c-0.3,0-0.6,0-0.9,0
		          c-1.6,0.1-3.1,0.3-4.6,0.7c-2.6,0.7-5.1,1.9-7.3,3.6l-2,1.7l-0.3,0.3c-0.6,0.6-1.2,1.3-1.7,2l4,4c0.5-0.8,1.1-1.5,1.8-2.1v0
		          c0.7-0.7,1.4-1.3,2.1-1.8c2.6-1.8,5.7-2.8,8.9-2.8c1.2,0,2.3,0.1,3.4,0.4c1,0.2,2,0.6,3,1c0.9,0.4,1.7,0.8,2.5,1.4c0,0,0,0,0.1,0v0
		          l-9,9l-3.8,3.8L29,28.2l-1.8,1.8L27,30.2l-1.8,1.8l-1.6,1.6H56L52,29.4H35.7z"/>
	  <circle id="XMLID_63_" class="st1" cx="70.5" cy="29" r="4.2"/>
  </g>
</svg>
