<?xml version="1.0" encoding="utf-8"?>
<!-- Generator: Adobe Illustrator 19.0.0, SVG Export Plug-In . SVG Version: 6.00 Build 0)  -->
<svg version="1.1" id="Layer_1" xmlns="http://www.w3.org/2000/svg" xmlns:xlink="http://www.w3.org/1999/xlink" x="0px" y="0px"
	 viewBox="0 0 200 200" style="enable-background:new 0 0 200 200;" xml:space="preserve">
<style type="text/css">
	.st0{fill:#F5846B;}
	.st1{fill:#334B5E;}
	.st2{fill:#FFFFFF;}
	.st3{fill:#F8B54D;}
	.st4{fill:#56C0EA;}
	.st5{fill:#F15640;}
	.st6{fill:#ADB3BA;}
	.st7{fill:#E7E9ED;}
	.st8{fill:#8BD7F8;}
	.st9{fill:#2C3C4F;}
</style>
<g id="XMLID_502_">
	<circle id="XMLID_500_" class="st0" cx="100" cy="100" r="100"/>
	<rect id="XMLID_499_" x="37.5" y="41.4" class="st1" width="111.1" height="103.5"/>
	<g id="XMLID_517_">
		<rect id="XMLID_498_" x="47.2" y="64.6" class="st2" width="91.7" height="70.6"/>
		<rect id="XMLID_496_" x="47.2" y="49.6" class="st2" width="11.5" height="6.7"/>
	</g>
	<rect id="XMLID_495_" x="66.2" y="49.6" class="st3" width="11.5" height="6.7"/>
	<rect id="XMLID_493_" x="85.1" y="49.6" class="st4" width="11.5" height="6.7"/>
	<rect id="XMLID_492_" x="53.8" y="92.7" class="st5" width="78.5" height="14.5"/>
	<rect id="XMLID_491_" x="53.8" y="113.8" class="st4" width="35.8" height="14.5"/>
	<g id="XMLID_510_">
		<rect id="XMLID_490_" x="96.5" y="113.8" class="st6" width="35.8" height="14.5"/>
		<rect id="XMLID_489_" x="53.8" y="71.5" class="st6" width="35.8" height="14.5"/>
	</g>
	<rect id="XMLID_488_" x="96.5" y="71.5" class="st4" width="35.8" height="14.5"/>
	<path id="XMLID_487_" class="st7" d="M120.6,96.9c-2.1,0-3.9,1.7-3.9,3.9v61.7c0,2.1,1.7,3.9,3.9,3.9h38c2.1,0,3.9-1.7,3.9-3.9
		v-61.7c0-2.1-1.7-3.9-3.9-3.9L120.6,96.9L120.6,96.9z"/>
	<rect id="XMLID_486_" x="122.3" y="108" class="st8" width="34.7" height="43"/>
	<path id="XMLID_485_" class="st9" d="M145.2,103.5H134c-0.2,0-0.4-0.2-0.4-0.4V101c0-0.2,0.2-0.4,0.4-0.4h11.2
		c0.2,0,0.4,0.2,0.4,0.4v2.2C145.6,103.3,145.4,103.5,145.2,103.5z"/>
	<ellipse id="XMLID_481_" class="st1" cx="139.6" cy="158.4" rx="4.5" ry="4.5"/>
</g>
</svg>
