<?xml version="1.0" encoding="utf-8"?>
<!-- Generator: Adobe Illustrator 19.0.0, SVG Export Plug-In . SVG Version: 6.00 Build 0)  -->
<svg version="1.1" id="Layer_1" xmlns="http://www.w3.org/2000/svg" xmlns:xlink="http://www.w3.org/1999/xlink" x="0px" y="0px"
	 viewBox="0 0 200 200" style="enable-background:new 0 0 200 200;" xml:space="preserve">
<style type="text/css">
	.st0{fill:#FFD632;}
	.st1{fill:#E85050;}
	.st2{fill:#D24848;}
	.st3{fill:#F7F8F9;}
	.st4{fill:#EBECEB;}
	.st5{fill:#07505A;}
	.st6{fill:#818181;}
</style>
<g id="XMLID_399_">
	<circle id="XMLID_397_" class="st0" cx="100" cy="100" r="100"/>
	<path id="XMLID_396_" class="st1" d="M49.8,54.3h100.3c3.2,0,5.8,2.6,5.8,5.8v55.4c0,3.2-2.6,5.8-5.8,5.8H49.8
		c-3.2,0-5.8-2.6-5.8-5.8V60.1C44,56.9,46.6,54.3,49.8,54.3z"/>
	<path id="XMLID_395_" class="st2" d="M154.3,56c1,1,1.7,2.5,1.7,4.1v55.4c0,3.2-2.6,5.8-5.8,5.8H49.8c-2,0-3.7-1-4.7-2.5L154.3,56z
		"/>
	<path id="XMLID_394_" class="st3" d="M49.5,58.7h101V117h-101V58.7z"/>
	<path id="XMLID_392_" class="st2" d="M43.6,123.6h56.2h0.5h56.2c1.5,0,10,12.5,11.5,14.3c0.9,1.1,0.3,1.9-1.1,1.9l-66.8-0.2
		l-66.8,0.2c-1.4,0-2-0.8-1.1-1.9C33.5,136.1,42,123.6,43.6,123.6L43.6,123.6z"/>
	<path id="XMLID_391_" class="st1" d="M43.6,123.6c-1.5,0-10,12.5-11.5,14.3c-0.9,1.1-0.3,1.9,1.1,1.9l66.8-0.2l66.8,0.2
		c1,0,1.6-0.4,1.5-1L43.6,123.6z"/>
	<path id="XMLID_390_" class="st2" d="M37.8,145.6c-1.4,0-5.8-3.9-6-5.9l-0.1-0.8c45,0,91.6,0,136.7,0l-0.1,0.8
		c-0.2,2-4.1,5.9-5.6,5.9C121,145.7,79.5,145.7,37.8,145.6z"/>
	<path id="XMLID_389_" class="st4" d="M89.2,133.3h5.9h11.2h5.9l1.9,4.8h-7.8H95.1h-7.8L89.2,133.3z"/>
	<path id="XMLID_405_" class="st5" d="M69.4,121.4h7.3v2.2h-7.3V121.4z M123.2,121.4h7.3v2.2h-7.3V121.4z"/>
	<path id="XMLID_400_" class="st6" d="M59.9,99.1V76.7h4.6v8.9h8.9v-8.9h4.6v22.5h-4.6v-9.8h-8.9v9.8H59.9L59.9,99.1z M87.6,99.1
		V80.5H81v-3.8h17.8v3.8h-6.6v18.7H87.6z M101.6,99.1V76.7h6.8l4,15.3l4-15.3h6.8v22.5h-4.2V81.4l-4.4,17.7h-4.4l-4.4-17.7v17.7
		H101.6z M128,99.1V76.8h4.6v18.5h11.3v3.8L128,99.1L128,99.1L128,99.1z"/>
</g>
</svg>
