<?xml version="1.0" encoding="utf-8"?>
<!-- Generator: Adobe Illustrator 19.0.0, SVG Export Plug-In . SVG Version: 6.00 Build 0)  -->
<svg version="1.1" id="Layer_1" xmlns="http://www.w3.org/2000/svg" xmlns:xlink="http://www.w3.org/1999/xlink" x="0px" y="0px"
	 viewBox="0 0 200 200" style="enable-background:new 0 0 200 200;" xml:space="preserve">
<style type="text/css">
	.st0{fill:#E15C49;}
	.st1{fill:#3B566A;}
	.st2{fill:#ECF0F3;}
	.st3{fill:#314859;}
	.st4{fill:#E1E6E9;}
	.st5{fill:#FCD463;}
	.st6{fill:#E66454;}
	.st7{fill:#4FBF9F;}
	.st8{fill:#2BA2DC;}
	.st9{fill:#647A8A;}
	.st10{fill:#F5C359;}
	.st11{fill:#3DA69B;}
	.st12{fill:#D25342;}
</style>
<g id="XMLID_365_">
	<circle id="XMLID_363_" class="st0" cx="100" cy="100" r="100"/>
	<path id="XMLID_362_" class="st1" d="M154.5,65.5h-13l-0.5,5.7H151v59h-15.7H64.6H49v-59h10.1l-0.5-5.7h-13c-1.6,0-2.8,1.2-2.8,2.6
		v71.8c0,1.4,1.3,2.6,2.8,2.6h108.9c1.6,0,2.8-1.2,2.8-2.6V68.1C157.3,66.7,156,65.5,154.5,65.5z"/>
	<polygon id="XMLID_361_" class="st2" points="151,130.3 151,71.3 140.9,71.3 135.4,130.3 	"/>
	<polygon id="XMLID_360_" class="st3" points="140.9,71.3 141.5,65.5 58.5,65.5 59.1,71.3 	"/>
	<polygon id="XMLID_359_" class="st4" points="64.6,130.3 135.4,130.3 140.9,71.3 59.1,71.3 	"/>
	<g id="XMLID_416_">
		<rect id="XMLID_358_" x="64.6" y="42.7" class="st2" width="70.8" height="87.6"/>
		<polygon id="XMLID_357_" class="st2" points="49,71.3 49,130.3 64.6,130.3 59.1,71.3 		"/>
	</g>
	<path id="XMLID_356_" class="st5" d="M79.1,54.2h-8.9c-0.3,0-0.6,0.3-0.6,0.7v4.4c0,0.4,0.3,0.7,0.6,0.7h8.9c0.3,0,0.6-0.3,0.6-0.7
		v-4.4C79.7,54.5,79.5,54.2,79.1,54.2z"/>
	<path id="XMLID_355_" class="st6" d="M91.8,54.2h-8.9c-0.3,0-0.6,0.3-0.6,0.7v4.4c0,0.4,0.3,0.7,0.6,0.7h8.9c0.3,0,0.6-0.3,0.6-0.7
		v-4.4C92.4,54.5,92.1,54.2,91.8,54.2z"/>
	<path id="XMLID_354_" class="st7" d="M104.5,54.2h-8.9c-0.3,0-0.6,0.3-0.6,0.7v4.4c0,0.4,0.3,0.7,0.6,0.7h8.9
		c0.3,0,0.6-0.3,0.6-0.7v-4.4C105.1,54.5,104.8,54.2,104.5,54.2z"/>
	<path id="XMLID_337_" class="st8" d="M117.1,54.2h-8.9c-0.3,0-0.6,0.3-0.6,0.7v4.4c0,0.4,0.3,0.7,0.6,0.7h8.9
		c0.3,0,0.6-0.3,0.6-0.7v-4.4C117.7,54.5,117.5,54.2,117.1,54.2z"/>
	<g id="XMLID_409_">
		<path id="XMLID_336_" class="st9" d="M129.8,54.2h-8.9c-0.3,0-0.6,0.3-0.6,0.7v4.4c0,0.4,0.3,0.7,0.6,0.7h8.9
			c0.3,0,0.6-0.3,0.6-0.7v-4.4C130.4,54.5,130.1,54.2,129.8,54.2z"/>
		<rect id="XMLID_335_" x="64.6" y="62.4" class="st9" width="70.8" height="25.1"/>
	</g>
	<g id="XMLID_406_">
		<polygon id="XMLID_334_" class="st2" points="70.1,76.9 68.3,74.9 70.1,72.9 70.8,73.8 69.8,74.9 70.8,76.1 		"/>
		<polygon id="XMLID_320_" class="st2" points="129.9,76.9 131.7,74.9 129.9,72.9 129.2,73.8 130.2,74.9 129.2,76.1 		"/>
	</g>
	<rect id="XMLID_319_" x="69.6" y="89.9" class="st5" width="17.8" height="18"/>
	<rect id="XMLID_318_" x="91.1" y="89.9" class="st7" width="17.8" height="18"/>
	<rect id="XMLID_317_" x="112.7" y="89.9" class="st6" width="17.8" height="18"/>
	<rect id="XMLID_316_" x="69.6" y="105.4" class="st10" width="17.8" height="2.4"/>
	<rect id="XMLID_315_" x="91.1" y="105.4" class="st11" width="17.8" height="2.4"/>
	<rect id="XMLID_311_" x="112.7" y="105.4" class="st12" width="17.8" height="2.4"/>
	<g id="XMLID_393_">
		<rect id="XMLID_309_" x="69.6" y="113.3" class="st4" width="17.8" height="2.4"/>
		<rect id="XMLID_272_" x="91.1" y="113.3" class="st4" width="17.8" height="2.4"/>
		<rect id="XMLID_269_" x="112.7" y="113.3" class="st4" width="17.8" height="2.4"/>
		<rect id="XMLID_268_" x="69.6" y="120.5" class="st4" width="8.8" height="2.4"/>
		<rect id="XMLID_267_" x="91.1" y="120.5" class="st4" width="7.1" height="2.4"/>
		<rect id="XMLID_252_" x="112.7" y="120.5" class="st4" width="8.8" height="2.4"/>
	</g>
	<rect id="XMLID_251_" x="64.6" y="42.7" class="st9" width="70.8" height="9.3"/>
	<rect id="XMLID_249_" x="68.8" y="45" class="st2" width="41.4" height="4.7"/>
	<ellipse id="XMLID_247_" class="st5" cx="115" cy="47.4" rx="2.6" ry="2.4"/>
	<ellipse id="XMLID_246_" class="st7" cx="121.8" cy="47.4" rx="2.6" ry="2.4"/>
	<ellipse id="XMLID_244_" class="st6" cx="128.5" cy="47.4" rx="2.6" ry="2.4"/>
	<g id="XMLID_385_">
		<ellipse id="XMLID_243_" class="st3" cx="100" cy="136.1" rx="4.4" ry="4"/>
		<rect id="XMLID_242_" x="78" y="142.5" class="st3" width="44" height="8.4"/>
	</g>
	<polygon id="XMLID_241_" class="st9" points="122,150.9 78,150.9 122,142.5 	"/>
	<path id="XMLID_238_" class="st1" d="M131,150.9H69c-1.2,0-2.2,0.9-2.2,2v4.4h66.3v-4.4C133.2,151.8,132.2,150.9,131,150.9z"/>
</g>
</svg>
