<?xml version="1.0" encoding="utf-8"?>
<!-- Generator: Adobe Illustrator 19.0.0, SVG Export Plug-In . SVG Version: 6.00 Build 0)  -->
<svg version="1.1" id="Layer_1" xmlns="http://www.w3.org/2000/svg" xmlns:xlink="http://www.w3.org/1999/xlink" x="0px" y="0px"
	 viewBox="0 0 200 156.7" style="enable-background:new 0 0 200 156.7;" xml:space="preserve">
<style type="text/css">
	.st0{fill:none;}
	.st1{opacity:0.2;fill-rule:evenodd;clip-rule:evenodd;fill:#818181;}
	.st2{fill-rule:evenodd;clip-rule:evenodd;fill:#676767;}
	.st3{fill-rule:evenodd;clip-rule:evenodd;fill:#C2C1C1;}
	.st4{fill-rule:evenodd;clip-rule:evenodd;fill:#48B2B9;}
	.st5{opacity:0.15;}
	.st6{fill:#090909;}
	.st7{fill:#737272;}
	.st8{fill:#EFEEEE;}
	.st9{fill-rule:evenodd;clip-rule:evenodd;fill:#E7563D;}
	.st10{fill:#BDA8A0;}
	.st11{fill:#AAD7D8;}
	.st12{fill:#997A73;}
	.st13{fill-rule:evenodd;clip-rule:evenodd;fill:#F7AC3C;}
	.st14{fill-rule:evenodd;clip-rule:evenodd;fill:#F2D972;}
	.st15{fill:#D43D27;}
	.st16{fill:#E7563D;}
	.st17{fill-rule:evenodd;clip-rule:evenodd;fill:#F7D581;}
	.st18{fill:#F37F20;}
	.st19{fill:#E2E2E2;}
	.st20{fill:#4B2311;}
	.st21{fill:#ADC9C9;}
	.st22{fill:#DFEFEF;}
	.st23{fill:#4C8B8C;}
</style>
<g id="XMLID_121_">
	<g id="XMLID_894_">
		<g id="XMLID_913_">
			<path id="XMLID_87_" class="st0" d="M100.5,96.2"/>
		</g>
		<g id="XMLID_910_">
			<path id="XMLID_86_" class="st0" d="M100.5,89.6"/>
		</g>
		<g id="XMLID_907_">
			<path id="XMLID_85_" class="st0" d="M111.5,85.6"/>
		</g>
		<g id="XMLID_904_">
			<path id="XMLID_83_" class="st0" d="M109.2,93"/>
		</g>
		<g id="XMLID_901_">
			<path id="XMLID_82_" class="st0" d="M107.3,89.3"/>
		</g>
		<g id="XMLID_898_">
			<path id="XMLID_81_" class="st0" d="M91.2,93"/>
		</g>
		<g id="XMLID_895_">
			<path id="XMLID_63_" class="st0" d="M93.1,89.3"/>
		</g>
	</g>
	<g id="XMLID_122_">
		<path id="XMLID_893_" class="st1" d="M92.5,152.8l106.1-0.2l-22.9-38.2h-0.1c0-0.2,0.1-0.5,0.1-0.8V29.4c0-3.3-2.6-5.9-5.8-5.9
			H29.7c-3.2,0-5.8,2.6-5.8,5.9v84.2c0,0.3,0,0.7,0.1,1l0-1L0,153h0.2c0.1,2.1,2.3,3.7,5,3.7h188.6c2.8,0,5-1.7,5-3.9H92.5z"/>
		<g id="XMLID_123_">
			<g id="XMLID_606_">
				<g id="XMLID_888_">
					<path id="XMLID_892_" class="st2" d="M176.8,110.4c0,3.2-2.6,5.9-5.9,5.9H30.5c-3.2,0-5.9-2.6-5.9-5.9V27.1
						c0-3.2,2.6-5.9,5.9-5.9H171c3.2,0,5.9,2.6,5.9,5.9V110.4z"/>
					<polygon id="XMLID_891_" class="st3" points="24.6,111.4 0.8,149.3 199.8,149 176.9,111.2 					"/>
					<path id="XMLID_890_" class="st2" d="M200,149.2L200,149.2c0,2.1-2.3,3.9-5,3.9H6c-2.8,0-5-1.7-5-3.9l0,0"/>
					<rect id="XMLID_889_" x="33.1" y="28.9" class="st4" width="135.3" height="75.3"/>
				</g>
				<g id="XMLID_607_">
					<g id="XMLID_1671_" class="st5">
						<polygon id="XMLID_1841_" class="st6" points="34.5,123.2 29.9,123.2 32,118.4 36.5,118.4 						"/>
						<polygon id="XMLID_1840_" class="st6" points="38.1,129.1 27.2,129.1 29.3,124.4 39.9,124.4 						"/>
						<polygon id="XMLID_1839_" class="st6" points="35.9,135.7 24.5,135.7 26.6,130.9 37.7,130.9 						"/>
						<polygon id="XMLID_1838_" class="st6" points="40.1,123.2 35.5,123.2 37.4,118.4 41.9,118.4 						"/>
						<polygon id="XMLID_1837_" class="st6" points="45.7,123.2 41,123.2 42.8,118.4 47.3,118.4 						"/>
						<polygon id="XMLID_1836_" class="st6" points="51.3,123.2 46.6,123.2 48.2,118.4 52.7,118.4 						"/>
						<polygon id="XMLID_1835_" class="st6" points="56.9,123.2 52.2,123.2 53.6,118.4 58.1,118.4 						"/>
						<polygon id="XMLID_1834_" class="st6" points="62.5,123.2 57.8,123.2 59,118.4 63.5,118.4 						"/>
						<polygon id="XMLID_1833_" class="st6" points="68,123.2 63.4,123.2 64.4,118.4 68.9,118.4 						"/>
						<polygon id="XMLID_1832_" class="st6" points="73.6,123.2 69,123.2 69.8,118.4 74.3,118.4 						"/>
						<polygon id="XMLID_1831_" class="st6" points="79.2,123.2 74.6,123.2 75.2,118.4 79.7,118.4 						"/>
						<polygon id="XMLID_1830_" class="st6" points="84.8,123.2 80.1,123.2 80.6,118.4 85.1,118.4 						"/>
						<polygon id="XMLID_1829_" class="st6" points="90.4,123.2 85.7,123.2 86,118.4 90.5,118.4 						"/>
						<polygon id="XMLID_1828_" class="st6" points="96,123.2 91.3,123.2 91.4,118.4 95.9,118.4 						"/>
						<polygon id="XMLID_1827_" class="st6" points="101.6,123.2 96.9,123.2 96.8,118.4 101.3,118.4 						"/>
						<polygon id="XMLID_1826_" class="st6" points="107.1,123.2 102.5,123.2 102.2,118.4 106.7,118.4 						"/>
						<polygon id="XMLID_1825_" class="st6" points="112.7,123.2 108.1,123.2 107.6,118.4 112.1,118.4 						"/>
						<polygon id="XMLID_1824_" class="st6" points="118.3,123.2 113.7,123.2 113,118.4 117.5,118.4 						"/>
						<polygon id="XMLID_1823_" class="st6" points="123.9,123.2 119.3,123.2 118.4,118.4 122.9,118.4 						"/>
						<polygon id="XMLID_1822_" class="st6" points="129.5,123.2 124.8,123.2 123.8,118.4 128.3,118.4 						"/>
						<polygon id="XMLID_1821_" class="st6" points="135.1,123.2 130.4,123.2 129.2,118.4 133.7,118.4 						"/>
						<polygon id="XMLID_1820_" class="st6" points="140.7,123.2 136,123.2 134.6,118.4 139.1,118.4 						"/>
						<polygon id="XMLID_1819_" class="st6" points="146.3,123.2 141.6,123.2 140,118.4 144.5,118.4 						"/>
						<polygon id="XMLID_1818_" class="st6" points="151.8,123.2 147.2,123.2 145.4,118.4 149.9,118.4 						"/>
						<polygon id="XMLID_1817_" class="st6" points="157.4,123.2 152.8,123.2 150.8,118.4 155.4,118.4 						"/>
						<polygon id="XMLID_1816_" class="st6" points="163,123.2 158.4,123.2 156.3,118.4 160.8,118.4 						"/>
						<polygon id="XMLID_1815_" class="st6" points="168.6,123.2 163.9,123.2 161.7,118.4 166.2,118.4 						"/>
						<polygon id="XMLID_1814_" class="st6" points="26.8,141.7 21.6,141.7 23.7,137 28.8,137 						"/>
						<polygon id="XMLID_1813_" class="st6" points="33.1,141.7 27.9,141.7 29.8,137 34.9,137 						"/>
						<polygon id="XMLID_1812_" class="st6" points="39.5,141.7 34.2,141.7 35.9,137 41,137 						"/>
						<polygon id="XMLID_1811_" class="st6" points="45.8,141.7 40.5,141.7 42.1,137 47.2,137 						"/>
						<polygon id="XMLID_1810_" class="st6" points="52.1,141.7 46.8,141.7 48.2,137 53.3,137 						"/>
						<polygon id="XMLID_1809_" class="st6" points="58.4,141.7 53.1,141.7 54.3,137 59.4,137 						"/>
						<polygon id="XMLID_1808_" class="st6" points="140.1,141.7 59.7,141.7 60.7,137 138.8,137 						"/>
						<polygon id="XMLID_1807_" class="st6" points="146.7,141.7 141.4,141.7 140,137 145.1,137 						"/>
						<polygon id="XMLID_1806_" class="st6" points="153,141.7 147.7,141.7 146.2,137 151.3,137 						"/>
						<polygon id="XMLID_1805_" class="st6" points="159.3,141.7 154,141.7 152.3,137 157.4,137 						"/>
						<polygon id="XMLID_1804_" class="st6" points="165.6,141.7 160.3,141.7 158.4,137 163.5,137 						"/>
						<polygon id="XMLID_1803_" class="st6" points="171.9,141.7 166.6,141.7 164.5,137 169.6,137 						"/>
						<polygon id="XMLID_1802_" class="st6" points="178.2,141.7 173,141.7 170.7,137 175.8,137 						"/>
						<polygon id="XMLID_1801_" class="st6" points="43.7,129.1 38.8,129.1 40.6,124.4 45.3,124.4 						"/>
						<polygon id="XMLID_1800_" class="st6" points="49.5,129.1 44.7,129.1 46.2,124.4 50.9,124.4 						"/>
						<polygon id="XMLID_1799_" class="st6" points="55.3,129.1 50.5,129.1 51.9,124.4 56.5,124.4 						"/>
						<polygon id="XMLID_1798_" class="st6" points="61.1,129.1 56.3,129.1 57.5,124.4 62.2,124.4 						"/>
						<polygon id="XMLID_1797_" class="st6" points="67,129.1 62.1,129.1 63.1,124.4 67.8,124.4 						"/>
						<polygon id="XMLID_1796_" class="st6" points="72.8,129.1 67.9,129.1 68.8,124.4 73.5,124.4 						"/>
						<polygon id="XMLID_1795_" class="st6" points="78.6,129.1 73.8,129.1 74.4,124.4 79.1,124.4 						"/>
						<polygon id="XMLID_1794_" class="st6" points="84.4,129.1 79.6,129.1 80,124.4 84.7,124.4 						"/>
						<polygon id="XMLID_1793_" class="st6" points="90.2,129.1 85.4,129.1 85.7,124.4 90.4,124.4 						"/>
						<polygon id="XMLID_1792_" class="st6" points="96.1,129.1 91.2,129.1 91.3,124.4 96,124.4 						"/>
						<polygon id="XMLID_1791_" class="st6" points="101.9,129.1 97,129.1 96.9,124.4 101.6,124.4 						"/>
						<polygon id="XMLID_1790_" class="st6" points="107.7,129.1 102.8,129.1 102.6,124.4 107.3,124.4 						"/>
						<polygon id="XMLID_1789_" class="st6" points="113.5,129.1 108.7,129.1 108.2,124.4 112.9,124.4 						"/>
						<polygon id="XMLID_1788_" class="st6" points="119.3,129.1 114.5,129.1 113.8,124.4 118.5,124.4 						"/>
						<polygon id="XMLID_1787_" class="st6" points="125.1,129.1 120.3,129.1 119.5,124.4 124.2,124.4 						"/>
						<polygon id="XMLID_1786_" class="st6" points="131,129.1 126.1,129.1 125.1,124.4 129.8,124.4 						"/>
						<polygon id="XMLID_1785_" class="st6" points="136.8,129.1 131.9,129.1 130.7,124.4 135.4,124.4 						"/>
						<polygon id="XMLID_1784_" class="st6" points="142.6,129.1 137.8,129.1 136.4,124.4 141.1,124.4 						"/>
						<polygon id="XMLID_1783_" class="st6" points="148.4,129.1 143.6,129.1 142,124.4 146.7,124.4 						"/>
						<polygon id="XMLID_1782_" class="st6" points="154.2,129.1 149.4,129.1 147.6,124.4 152.3,124.4 						"/>
						<polygon id="XMLID_1781_" class="st6" points="160.1,129.1 155.2,129.1 153.3,124.4 158,124.4 						"/>
						<polygon id="XMLID_1780_" class="st6" points="165.9,129.1 161,129.1 158.9,124.4 163.6,124.4 						"/>
						<polygon id="XMLID_1779_" class="st6" points="174.9,135.3 169.8,135.3 164.5,124.4 169.2,124.4 						"/>
						<polygon id="XMLID_1778_" class="st6" points="41.5,135.7 36.4,135.7 38.2,130.9 43.1,130.9 						"/>
						<polygon id="XMLID_1777_" class="st6" points="47.6,135.7 42.5,135.7 44.1,130.9 49,130.9 						"/>
						<polygon id="XMLID_1776_" class="st6" points="53.6,135.7 48.6,135.7 50,130.9 54.9,130.9 						"/>
						<polygon id="XMLID_1775_" class="st6" points="59.7,135.7 54.7,135.7 55.8,130.9 60.8,130.9 						"/>
						<polygon id="XMLID_1774_" class="st6" points="65.8,135.7 60.7,135.7 61.7,130.9 66.6,130.9 						"/>
						<polygon id="XMLID_1773_" class="st6" points="71.9,135.7 66.8,135.7 67.6,130.9 72.5,130.9 						"/>
						<polygon id="XMLID_1772_" class="st6" points="77.9,135.7 72.9,135.7 73.5,130.9 78.4,130.9 						"/>
						<polygon id="XMLID_1771_" class="st6" points="84,135.7 78.9,135.7 79.4,130.9 84.3,130.9 						"/>
						<polygon id="XMLID_1770_" class="st6" points="90.1,135.7 85,135.7 85.3,130.9 90.2,130.9 						"/>
						<polygon id="XMLID_1769_" class="st6" points="96.1,135.7 91.1,135.7 91.2,130.9 96.1,130.9 						"/>
						<polygon id="XMLID_1768_" class="st6" points="102.2,135.7 97.2,135.7 97.1,130.9 102,130.9 						"/>
						<polygon id="XMLID_1767_" class="st6" points="108.3,135.7 103.2,135.7 102.9,130.9 107.9,130.9 						"/>
						<polygon id="XMLID_1766_" class="st6" points="114.4,135.7 109.3,135.7 108.8,130.9 113.7,130.9 						"/>
						<polygon id="XMLID_1765_" class="st6" points="120.4,135.7 115.4,135.7 114.7,130.9 119.6,130.9 						"/>
						<polygon id="XMLID_1764_" class="st6" points="126.5,135.7 121.4,135.7 120.6,130.9 125.5,130.9 						"/>
						<polygon id="XMLID_1763_" class="st6" points="132.6,135.7 127.5,135.7 126.5,130.9 131.4,130.9 						"/>
						<polygon id="XMLID_1762_" class="st6" points="138.6,135.7 133.6,135.7 132.4,130.9 137.3,130.9 						"/>
						<polygon id="XMLID_1761_" class="st6" points="144.7,135.7 139.6,135.7 138.3,130.9 143.2,130.9 						"/>
						<polygon id="XMLID_1760_" class="st6" points="150.8,135.7 145.7,135.7 144.2,130.9 149.1,130.9 						"/>
						<polygon id="XMLID_1759_" class="st6" points="156.9,135.7 151.8,135.7 150,130.9 155,130.9 						"/>
						<polygon id="XMLID_1758_" class="st6" points="162.9,135.7 157.9,135.7 155.9,130.9 160.8,130.9 						"/>
						<polygon id="XMLID_1757_" class="st6" points="169,135.7 163.9,135.7 161.8,130.9 166.7,130.9 						"/>
					</g>
					<g id="XMLID_1412_">
						<g id="XMLID_1499_">
							<polygon id="XMLID_1584_" class="st7" points="34.5,122.2 29.9,122.2 32,117.4 36.5,117.4 							"/>
							<polygon id="XMLID_1583_" class="st7" points="38.1,128.1 27.2,128.1 29.3,123.4 39.9,123.4 							"/>
							<polygon id="XMLID_1582_" class="st7" points="35.9,134.7 24.5,134.7 26.6,129.9 37.7,129.9 							"/>
							<polygon id="XMLID_1581_" class="st7" points="40.1,122.2 35.5,122.2 37.4,117.4 41.9,117.4 							"/>
							<polygon id="XMLID_1580_" class="st7" points="45.7,122.2 41,122.2 42.8,117.4 47.3,117.4 							"/>
							<polygon id="XMLID_1579_" class="st7" points="51.3,122.2 46.6,122.2 48.2,117.4 52.7,117.4 							"/>
							<polygon id="XMLID_1578_" class="st7" points="56.9,122.2 52.2,122.2 53.6,117.4 58.1,117.4 							"/>
							<polygon id="XMLID_1577_" class="st7" points="62.5,122.2 57.8,122.2 59,117.4 63.5,117.4 							"/>
							<polygon id="XMLID_1576_" class="st7" points="68,122.2 63.4,122.2 64.4,117.4 68.9,117.4 							"/>
							<polygon id="XMLID_1575_" class="st7" points="73.6,122.2 69,122.2 69.8,117.4 74.3,117.4 							"/>
							<polygon id="XMLID_1574_" class="st7" points="79.2,122.2 74.6,122.2 75.2,117.4 79.7,117.4 							"/>
							<polygon id="XMLID_1573_" class="st7" points="84.8,122.2 80.1,122.2 80.6,117.4 85.1,117.4 							"/>
							<polygon id="XMLID_1572_" class="st7" points="90.4,122.2 85.7,122.2 86,117.4 90.5,117.4 							"/>
							<polygon id="XMLID_1571_" class="st7" points="96,122.2 91.3,122.2 91.4,117.4 95.9,117.4 							"/>
							<polygon id="XMLID_1570_" class="st7" points="101.6,122.2 96.9,122.2 96.8,117.4 101.3,117.4 							"/>
							<polygon id="XMLID_1569_" class="st7" points="107.1,122.2 102.5,122.2 102.2,117.4 106.7,117.4 							"/>
							<polygon id="XMLID_1568_" class="st7" points="112.7,122.2 108.1,122.2 107.6,117.4 112.1,117.4 							"/>
							<polygon id="XMLID_1567_" class="st7" points="118.3,122.2 113.7,122.2 113,117.4 117.5,117.4 							"/>
							<polygon id="XMLID_1566_" class="st7" points="123.9,122.2 119.3,122.2 118.4,117.4 122.9,117.4 							"/>
							<polygon id="XMLID_1565_" class="st7" points="129.5,122.2 124.8,122.2 123.8,117.4 128.3,117.4 							"/>
							<polygon id="XMLID_1564_" class="st7" points="135.1,122.2 130.4,122.2 129.2,117.4 133.7,117.4 							"/>
							<polygon id="XMLID_1563_" class="st7" points="140.7,122.2 136,122.2 134.6,117.4 139.1,117.4 							"/>
							<polygon id="XMLID_1562_" class="st7" points="146.3,122.2 141.6,122.2 140,117.4 144.5,117.4 							"/>
							<polygon id="XMLID_1561_" class="st7" points="151.8,122.2 147.2,122.2 145.4,117.4 149.9,117.4 							"/>
							<polygon id="XMLID_1560_" class="st7" points="157.4,122.2 152.8,122.2 150.8,117.4 155.4,117.4 							"/>
							<polygon id="XMLID_1559_" class="st7" points="163,122.2 158.4,122.2 156.3,117.4 160.8,117.4 							"/>
							<polygon id="XMLID_1558_" class="st7" points="168.6,122.2 163.9,122.2 161.7,117.4 166.2,117.4 							"/>
							<polygon id="XMLID_1557_" class="st7" points="26.8,140.7 21.6,140.7 23.7,136 28.8,136 							"/>
							<polygon id="XMLID_1556_" class="st7" points="33.1,140.7 27.9,140.7 29.8,136 34.9,136 							"/>
							<polygon id="XMLID_1555_" class="st7" points="39.5,140.7 34.2,140.7 35.9,136 41,136 							"/>
							<polygon id="XMLID_1554_" class="st7" points="45.8,140.7 40.5,140.7 42.1,136 47.2,136 							"/>
							<polygon id="XMLID_1553_" class="st7" points="52.1,140.7 46.8,140.7 48.2,136 53.3,136 							"/>
							<polygon id="XMLID_1552_" class="st7" points="58.4,140.7 53.1,140.7 54.3,136 59.4,136 							"/>
							<polygon id="XMLID_1551_" class="st7" points="140.1,140.7 59.7,140.7 60.7,136 138.8,136 							"/>
							<polygon id="XMLID_1550_" class="st7" points="146.7,140.7 141.4,140.7 140,136 145.1,136 							"/>
							<polygon id="XMLID_1549_" class="st7" points="153,140.7 147.7,140.7 146.2,136 151.3,136 							"/>
							<polygon id="XMLID_1548_" class="st7" points="159.3,140.7 154,140.7 152.3,136 157.4,136 							"/>
							<polygon id="XMLID_1547_" class="st7" points="165.6,140.7 160.3,140.7 158.4,136 163.5,136 							"/>
							<polygon id="XMLID_1546_" class="st7" points="171.9,140.7 166.6,140.7 164.5,136 169.6,136 							"/>
							<polygon id="XMLID_1545_" class="st7" points="178.2,140.7 173,140.7 170.7,136 175.8,136 							"/>
							<polygon id="XMLID_1544_" class="st7" points="43.7,128.1 38.8,128.1 40.6,123.4 45.3,123.4 							"/>
							<polygon id="XMLID_1543_" class="st7" points="49.5,128.1 44.7,128.1 46.2,123.4 50.9,123.4 							"/>
							<polygon id="XMLID_1542_" class="st7" points="55.3,128.1 50.5,128.1 51.9,123.4 56.5,123.4 							"/>
							<polygon id="XMLID_1541_" class="st7" points="61.1,128.1 56.3,128.1 57.5,123.4 62.2,123.4 							"/>
							<polygon id="XMLID_1540_" class="st7" points="67,128.1 62.1,128.1 63.1,123.4 67.8,123.4 							"/>
							<polygon id="XMLID_1539_" class="st7" points="72.8,128.1 67.9,128.1 68.8,123.4 73.5,123.4 							"/>
							<polygon id="XMLID_1538_" class="st7" points="78.6,128.1 73.8,128.1 74.4,123.4 79.1,123.4 							"/>
							<polygon id="XMLID_1537_" class="st7" points="84.4,128.1 79.6,128.1 80,123.4 84.7,123.4 							"/>
							<polygon id="XMLID_1536_" class="st7" points="90.2,128.1 85.4,128.1 85.7,123.4 90.4,123.4 							"/>
							<polygon id="XMLID_1535_" class="st7" points="96.1,128.1 91.2,128.1 91.3,123.4 96,123.4 							"/>
							<polygon id="XMLID_1534_" class="st7" points="101.9,128.1 97,128.1 96.9,123.4 101.6,123.4 							"/>
							<polygon id="XMLID_1533_" class="st7" points="107.7,128.1 102.8,128.1 102.6,123.4 107.3,123.4 							"/>
							<polygon id="XMLID_1532_" class="st7" points="113.5,128.1 108.7,128.1 108.2,123.4 112.9,123.4 							"/>
							<polygon id="XMLID_1531_" class="st7" points="119.3,128.1 114.5,128.1 113.8,123.4 118.5,123.4 							"/>
							<polygon id="XMLID_1530_" class="st7" points="125.1,128.1 120.3,128.1 119.5,123.4 124.2,123.4 							"/>
							<polygon id="XMLID_1529_" class="st7" points="131,128.1 126.1,128.1 125.1,123.4 129.8,123.4 							"/>
							<polygon id="XMLID_1528_" class="st7" points="136.8,128.1 131.9,128.1 130.7,123.4 135.4,123.4 							"/>
							<polygon id="XMLID_1527_" class="st7" points="142.6,128.1 137.8,128.1 136.4,123.4 141.1,123.4 							"/>
							<polygon id="XMLID_1526_" class="st7" points="148.4,128.1 143.6,128.1 142,123.4 146.7,123.4 							"/>
							<polygon id="XMLID_1525_" class="st7" points="154.2,128.1 149.4,128.1 147.6,123.4 152.3,123.4 							"/>
							<polygon id="XMLID_1524_" class="st7" points="160.1,128.1 155.2,128.1 153.3,123.4 158,123.4 							"/>
							<polygon id="XMLID_1523_" class="st7" points="165.9,128.1 161,128.1 158.9,123.4 163.6,123.4 							"/>
							<polygon id="XMLID_1522_" class="st7" points="174.9,134.3 169.8,134.3 164.5,123.4 169.2,123.4 							"/>
							<polygon id="XMLID_1521_" class="st7" points="41.5,134.7 36.4,134.7 38.2,129.9 43.1,129.9 							"/>
							<polygon id="XMLID_1520_" class="st7" points="47.6,134.7 42.5,134.7 44.1,129.9 49,129.9 							"/>
							<polygon id="XMLID_1519_" class="st7" points="53.6,134.7 48.6,134.7 50,129.9 54.9,129.9 							"/>
							<polygon id="XMLID_1518_" class="st7" points="59.7,134.7 54.7,134.7 55.8,129.9 60.8,129.9 							"/>
							<polygon id="XMLID_1517_" class="st7" points="65.8,134.7 60.7,134.7 61.7,129.9 66.6,129.9 							"/>
							<polygon id="XMLID_1516_" class="st7" points="71.9,134.7 66.8,134.7 67.6,129.9 72.5,129.9 							"/>
							<polygon id="XMLID_1515_" class="st7" points="77.9,134.7 72.9,134.7 73.5,129.9 78.4,129.9 							"/>
							<polygon id="XMLID_1514_" class="st7" points="84,134.7 78.9,134.7 79.4,129.9 84.3,129.9 							"/>
							<polygon id="XMLID_1513_" class="st7" points="90.1,134.7 85,134.7 85.3,129.9 90.2,129.9 							"/>
							<polygon id="XMLID_1512_" class="st7" points="96.1,134.7 91.1,134.7 91.2,129.9 96.1,129.9 							"/>
							<polygon id="XMLID_1511_" class="st7" points="102.2,134.7 97.2,134.7 97.1,129.9 102,129.9 							"/>
							<polygon id="XMLID_1510_" class="st7" points="108.3,134.7 103.2,134.7 102.9,129.9 107.9,129.9 							"/>
							<polygon id="XMLID_1509_" class="st7" points="114.4,134.7 109.3,134.7 108.8,129.9 113.7,129.9 							"/>
							<polygon id="XMLID_1508_" class="st7" points="120.4,134.7 115.4,134.7 114.7,129.9 119.6,129.9 							"/>
							<polygon id="XMLID_1507_" class="st7" points="126.5,134.7 121.4,134.7 120.6,129.9 125.5,129.9 							"/>
							<polygon id="XMLID_1506_" class="st7" points="132.6,134.7 127.5,134.7 126.5,129.9 131.4,129.9 							"/>
							<polygon id="XMLID_1505_" class="st7" points="138.6,134.7 133.6,134.7 132.4,129.9 137.3,129.9 							"/>
							<polygon id="XMLID_1504_" class="st7" points="144.7,134.7 139.6,134.7 138.3,129.9 143.2,129.9 							"/>
							<polygon id="XMLID_1503_" class="st7" points="150.8,134.7 145.7,134.7 144.2,129.9 149.1,129.9 							"/>
							<polygon id="XMLID_1502_" class="st7" points="156.9,134.7 151.8,134.7 150,129.9 155,129.9 							"/>
							<polygon id="XMLID_1501_" class="st7" points="162.9,134.7 157.9,134.7 155.9,129.9 160.8,129.9 							"/>
							<polygon id="XMLID_1500_" class="st7" points="169,134.7 163.9,134.7 161.8,129.9 166.7,129.9 							"/>
						</g>
					</g>
				</g>
			</g>
			<g id="XMLID_124_">
				<g id="XMLID_552_">
					<path id="XMLID_588_" class="st8" d="M127.4,39.9c0,0,0.1,0.1,0.2,0.2c0.2,0.1,0.4,0.3,0.7,0.5c0.6,0.4,1.5,1.1,2.5,2.1
						c0.5,0.5,1.1,1.1,1.6,1.7c0.6,0.7,1.1,1.4,1.7,2.2c0.6,0.8,1.1,1.8,1.6,2.8c0.5,1,1,2.1,1.4,3.3c0.4,1.2,0.7,2.5,1,3.8
						c0.3,1.3,0.4,2.7,0.5,4.2c0.1,1.4,0,2.9-0.1,4.5c-0.1,1.5-0.4,3.1-0.8,4.6c-0.8,3.1-1.9,6.2-3.6,9c-0.8,1.4-1.7,2.8-2.7,4.2
						c-1,1.3-2.1,2.6-3.3,3.8c-2.4,2.5-5.2,4.5-8.1,6.1c-2.9,1.6-6,2.8-9,3.6c-3,0.8-6.1,1.2-8.9,1.3c-2.9,0.1-5.6-0.3-8.1-1.1
						c-1.2-0.4-2.4-0.9-3.4-1.5c-1-0.6-1.9-1.3-2.7-2.1c-0.7-0.8-1.3-1.7-1.6-2.5c-0.4-0.9-0.5-1.7-0.6-2.4c-0.1-0.7-0.1-1.4,0-2
						c0-0.3,0.1-0.5,0.1-0.8c0-0.2,0.1-0.4,0.1-0.6c0.1-0.4,0.2-0.6,0.2-0.8c0.1-0.2,0.1-0.3,0.1-0.3l0.3,0.1c0,0,0,0.1-0.1,0.3
						c0,0.2-0.1,0.5-0.1,0.8c-0.1,0.7-0.2,1.8,0.1,3.2c0.1,0.7,0.4,1.4,0.7,2.1c0.4,0.7,0.9,1.4,1.6,2.1c1.4,1.3,3.4,2.3,5.6,2.9
						c2.3,0.6,4.9,0.8,7.6,0.6c2.7-0.2,5.5-0.7,8.4-1.5c2.8-0.9,5.7-2.1,8.3-3.6c2.7-1.6,5.2-3.5,7.4-5.7c2.2-2.3,4.1-4.8,5.7-7.5
						c1.6-2.7,2.8-5.5,3.6-8.4c0.8-2.8,1.2-5.7,1.2-8.4c0-2.7-0.4-5.3-1-7.5c-0.6-2.3-1.5-4.3-2.4-6c-0.9-1.7-1.9-3-2.8-4.1
						c-0.9-1-1.7-1.8-2.2-2.3c-0.3-0.2-0.5-0.4-0.6-0.6c-0.1-0.1-0.2-0.2-0.2-0.2L127.4,39.9z"/>
					<g id="XMLID_553_">
						<polyline id="XMLID_587_" class="st9" points="113.6,18.8 127.1,19.2 128.3,21.5 118.9,26.8 						"/>
						<polyline id="XMLID_586_" class="st9" points="105.8,25.7 104.7,39.2 106.8,40.6 113.2,31.9 						"/>
						<g id="XMLID_564_">
							<path id="XMLID_585_" class="st10" d="M98.7,4.1l-2.9,2.6l-2.9,2.6c0,0-0.4,4.4,6.2,12c6.7,7.6,15.2,13.2,15.2,13.2l3.3-2.9
								l3.3-2.9c0,0-4.5-9.2-11.2-16.8C103.2,4.2,98.7,4.1,98.7,4.1z"/>
							<g id="XMLID_566_">
								<g id="XMLID_580_">
									<circle id="XMLID_584_" class="st11" cx="102" cy="13.7" r="3"/>
									<path id="XMLID_581_" class="st12" d="M104.4,16.4c1.5-1.3,1.6-3.6,0.3-5.1c-1.3-1.5-3.6-1.6-5.1-0.3
										c-1.5,1.3-1.6,3.6-0.3,5.1C100.6,17.6,102.9,17.7,104.4,16.4z M100.4,11.8c1-0.9,2.6-0.8,3.5,0.2c0.9,1,0.8,2.6-0.2,3.5
										c-1,0.9-2.6,0.8-3.5-0.2C99.2,14.3,99.3,12.8,100.4,11.8z"/>
								</g>
								<g id="XMLID_575_">
									<circle id="XMLID_579_" class="st11" cx="107.9" cy="20.4" r="1.4"/>
									<path id="XMLID_576_" class="st12" d="M109.1,21.7c0.7-0.6,0.8-1.7,0.2-2.5c-0.6-0.7-1.7-0.8-2.5-0.2
										c-0.7,0.6-0.8,1.7-0.2,2.5C107.3,22.3,108.4,22.3,109.1,21.7z M107.1,19.5c0.5-0.4,1.3-0.4,1.7,0.1
										c0.4,0.5,0.4,1.3-0.1,1.7c-0.5,0.4-1.3,0.4-1.7-0.1C106.6,20.7,106.6,19.9,107.1,19.5z"/>
								</g>
								<g id="XMLID_567_">
									<circle id="XMLID_574_" class="st11" cx="112.3" cy="25.3" r="1.4"/>
									<path id="XMLID_568_" class="st12" d="M113.4,26.6c0.7-0.6,0.8-1.7,0.2-2.5c-0.6-0.7-1.7-0.8-2.5-0.2
										c-0.7,0.6-0.8,1.7-0.2,2.5C111.6,27.1,112.7,27.2,113.4,26.6z M111.5,24.4c0.5-0.4,1.3-0.4,1.7,0.1
										c0.4,0.5,0.4,1.3-0.1,1.7c-0.5,0.4-1.3,0.4-1.7-0.1C110.9,25.6,111,24.8,111.5,24.4z"/>
								</g>
							</g>
						</g>
						<g id="XMLID_558_">
							<path id="XMLID_563_" class="st13" d="M115.7,34.1l5.3-4.3c0,0,3.4,2.3,5,6.7c0,0-0.8-0.3-2-0.5c0,0,1.1,1.5,1.2,3.9
								C125.2,39.8,120.5,41.5,115.7,34.1z"/>
							<path id="XMLID_562_" class="st14" d="M116.2,33.6l4.1-3.4c0,0,2.7,1.4,3.9,4.9c0,0-0.9-0.2-1.6-0.5c0,0,0.9,1.6,1,3.5
								C123.6,38.1,119.9,39.4,116.2,33.6z"/>
							<path id="XMLID_559_" class="st15" d="M121.8,28.2c0.2,0.2,0.2,0.5,0,0.7l-7.3,6.5c-0.2,0.2-0.5,0.2-0.7,0l0,0
								c-0.2-0.2-0.2-0.5,0-0.7l7.3-6.5C121.3,28,121.6,28,121.8,28.2L121.8,28.2z"/>
						</g>
						<g id="XMLID_554_">
							<polygon id="XMLID_557_" class="st16" points="92.6,10.1 89.9,0 99.6,3.9 							"/>
							<path id="XMLID_556_" class="st15" d="M100.1,4c0.1,0.2,0.1,0.4,0,0.5l-7,6.2c-0.2,0.1-0.4,0.1-0.5,0l0,0
								c-0.1-0.2-0.1-0.4,0-0.5l7-6.2C99.8,3.8,100,3.8,100.1,4L100.1,4z"/>
						</g>
					</g>
				</g>
				<g id="XMLID_133_">
					<g id="XMLID_513_">
						<g id="XMLID_536_">
							<g id="XMLID_548_">
								<polygon id="XMLID_551_" class="st17" points="111.4,83.6 110.7,83.4 110.2,84 110,83.2 109.2,83.2 109.8,82.6 109.5,81.9 
									110.3,82.1 110.7,81.5 110.9,82.3 111.7,82.4 111.1,82.9 								"/>
								<polygon id="XMLID_550_" class="st17" points="102.6,85.8 101.6,85.4 100.9,86.3 100.7,85.2 99.5,85.1 100.4,84.3 
									99.9,83.3 101,83.6 101.7,82.7 101.9,83.8 103,84 102.2,84.7 								"/>
								<polygon id="XMLID_549_" class="st17" points="105.3,76.4 104.8,76.2 104.5,76.7 104.4,76.1 103.8,76.1 104.2,75.7 
									104,75.2 104.5,75.3 104.9,74.9 105,75.4 105.5,75.5 105.1,75.9 								"/>
							</g>
							<g id="XMLID_543_">
								<polygon id="XMLID_547_" class="st17" points="124.6,46.3 124.4,47.1 125.1,47.6 124.3,47.8 124.2,48.6 123.7,48 
									122.9,48.4 123.1,47.6 122.5,47.2 123.2,47 123.3,46.1 123.9,46.7 								"/>
								<polygon id="XMLID_545_" class="st17" points="127.3,54.9 127.1,56 128,56.6 126.9,56.9 126.9,58.1 126.1,57.3 125.1,57.8 
									125.4,56.7 124.4,56.1 125.5,55.8 125.5,54.7 126.3,55.5 								"/>
								<polygon id="XMLID_544_" class="st17" points="117.8,53 117.7,53.5 118.1,53.8 117.6,53.9 117.6,54.5 117.2,54.1 
									116.7,54.4 116.8,53.8 116.3,53.5 116.9,53.4 116.9,52.8 117.3,53.2 								"/>
							</g>
							<g id="XMLID_538_">
								<polygon id="XMLID_542_" class="st17" points="85.6,54.2 84.9,53.7 84.2,54.2 84.3,53.4 83.6,53.1 84.3,52.8 84.2,51.9 
									84.9,52.4 85.5,51.9 85.5,52.7 86.2,53.1 85.5,53.4 								"/>
								<polygon id="XMLID_540_" class="st17" points="76.5,53.6 75.6,53 74.7,53.6 74.8,52.5 73.8,52.1 74.8,51.6 74.7,50.5 
									75.6,51.1 76.5,50.5 76.4,51.6 77.4,52 76.4,52.5 								"/>
								<polygon id="XMLID_539_" class="st17" points="81.9,45.5 81.4,45.2 81,45.5 81,44.9 80.5,44.7 81,44.5 81,43.9 81.4,44.2 
									81.9,43.9 81.8,44.5 82.3,44.7 81.8,44.9 								"/>
							</g>
						</g>
						<g id="XMLID_515_">
							<g id="XMLID_529_">
								<path id="XMLID_535_" class="st18" d="M101.4,44.3c0,0,0-0.4-0.1-1c-0.1-0.6-0.1-1.4-0.1-2.3c0-0.4-0.1-0.8-0.1-1.2
									c0-0.4,0-0.7,0.1-1c0.1-0.6,0.2-1,0.2-1h0.1c0,0,0.1,0.4,0.2,1c0,0.3,0.1,0.7,0.1,1c0,0.4-0.1,0.8-0.1,1.2
									c0,0.8-0.1,1.6-0.1,2.3C101.5,43.9,101.5,44.3,101.4,44.3L101.4,44.3z"/>
								<path id="XMLID_533_" class="st18" d="M111.2,48.4c0,0,0.2-0.3,0.6-0.7c0.4-0.4,0.9-0.9,1.4-1.4c0.2-0.3,0.5-0.5,0.7-0.8
									c0.2-0.2,0.5-0.4,0.7-0.6c0.4-0.3,0.8-0.4,0.8-0.4l0,0c0,0-0.2,0.3-0.5,0.8c-0.2,0.2-0.4,0.5-0.6,0.7
									c-0.3,0.2-0.5,0.4-0.8,0.7c-0.6,0.5-1.1,0.9-1.5,1.2C111.6,48.2,111.3,48.4,111.2,48.4L111.2,48.4z"/>
								<path id="XMLID_532_" class="st18" d="M92.6,48.4c0,0-0.3-0.2-0.7-0.5c-0.4-0.3-1-0.8-1.5-1.2c-0.3-0.2-0.6-0.4-0.8-0.7
									c-0.2-0.2-0.5-0.5-0.6-0.7c-0.3-0.4-0.5-0.8-0.5-0.8l0,0c0,0,0.4,0.1,0.8,0.4c0.2,0.2,0.5,0.3,0.7,0.6
									c0.2,0.2,0.5,0.5,0.7,0.8c0.5,0.5,1,1,1.4,1.4C92.4,48.1,92.7,48.4,92.6,48.4L92.6,48.4z"/>
								<path id="XMLID_531_" class="st19" d="M96,44.7c0,0-0.5-0.9-1-1.8c-0.1-0.2-0.3-0.4-0.3-0.7c-0.1-0.2-0.1-0.4-0.2-0.6
									c-0.1-0.4,0-0.7,0-0.7l0.1,0c0,0,0.2,0.2,0.4,0.5c0.1,0.2,0.2,0.4,0.3,0.6c0.1,0.2,0.1,0.5,0.2,0.7
									C95.8,43.7,96.1,44.7,96,44.7L96,44.7z"/>
								<path id="XMLID_530_" class="st19" d="M107.4,44.7c0,0,0.2-1,0.5-1.9c0.1-0.2,0.1-0.5,0.2-0.7c0.1-0.2,0.2-0.4,0.3-0.6
									c0.2-0.3,0.4-0.5,0.4-0.5l0.1,0c0,0,0,0.3,0,0.7c0,0.2-0.1,0.4-0.2,0.6c-0.1,0.2-0.2,0.4-0.3,0.7
									C108,43.8,107.5,44.7,107.4,44.7L107.4,44.7z"/>
							</g>
							<g id="XMLID_523_">
								<path id="XMLID_528_" class="st18" d="M77.8,71.8c0,0-0.4,0.2-0.9,0.4c-0.6,0.2-1.3,0.5-2.1,0.8c-0.4,0.2-0.8,0.3-1.1,0.5
									c-0.4,0.1-0.7,0.2-1,0.3c-0.6,0.1-1,0.1-1,0.1l0-0.1c0,0,0.3-0.3,0.9-0.5c0.3-0.1,0.6-0.3,1-0.4c0.4-0.1,0.8-0.2,1.2-0.3
									c0.8-0.2,1.6-0.4,2.2-0.6C77.4,71.8,77.8,71.7,77.8,71.8L77.8,71.8z"/>
								<path id="XMLID_527_" class="st18" d="M78.5,61.2c0,0-0.3-0.1-0.8-0.4c-0.5-0.2-1.1-0.5-1.8-0.8c-0.3-0.2-0.7-0.3-1-0.4
									c-0.3-0.2-0.6-0.3-0.8-0.5c-0.4-0.3-0.7-0.6-0.7-0.6l0-0.1c0,0,0.4,0.1,0.9,0.2c0.3,0.1,0.5,0.2,0.8,0.4
									c0.3,0.2,0.6,0.4,0.9,0.6c0.6,0.4,1.2,0.8,1.7,1.1C78.2,61,78.5,61.2,78.5,61.2L78.5,61.2z"/>
								<path id="XMLID_526_" class="st18" d="M84.5,78.9c0,0-0.1,0.3-0.3,0.9c-0.2,0.5-0.4,1.2-0.7,1.9c-0.1,0.3-0.2,0.7-0.4,1
									c-0.1,0.3-0.3,0.6-0.4,0.8c-0.3,0.5-0.6,0.7-0.6,0.7l-0.1,0c0,0,0-0.4,0.2-0.9c0.1-0.3,0.2-0.6,0.3-0.9
									c0.1-0.3,0.3-0.6,0.5-0.9c0.3-0.6,0.7-1.3,0.9-1.7C84.2,79.1,84.4,78.8,84.5,78.9L84.5,78.9z"/>
								<path id="XMLID_525_" class="st19" d="M79.9,76.8c0,0-0.7,0.8-1.4,1.5c-0.2,0.2-0.3,0.4-0.5,0.5c-0.2,0.2-0.4,0.3-0.5,0.4
									c-0.3,0.2-0.6,0.2-0.6,0.2l0,0c0,0,0.1-0.3,0.3-0.6c0.1-0.2,0.3-0.3,0.4-0.5c0.2-0.1,0.4-0.3,0.6-0.4
									C79,77.3,79.8,76.8,79.9,76.8L79.9,76.8z"/>
								<path id="XMLID_524_" class="st19" d="M76.2,66c0,0-1,0.1-2,0.1c-0.3,0-0.5,0-0.7,0c-0.2,0-0.5-0.1-0.6-0.1
									c-0.4-0.1-0.6-0.3-0.6-0.3l0-0.1c0,0,0.3-0.1,0.6-0.2c0.2,0,0.4-0.1,0.6,0c0.2,0,0.5,0.1,0.7,0.1
									C75.2,65.7,76.2,65.9,76.2,66L76.2,66z"/>
							</g>
							<g id="XMLID_516_">
								<path id="XMLID_522_" class="st18" d="M126.2,71.4c0,0,0.3,0,0.9,0.1c0.5,0.1,1.2,0.2,1.9,0.3c0.3,0.1,0.7,0.1,1,0.2
									c0.3,0.1,0.6,0.2,0.8,0.3c0.5,0.2,0.8,0.4,0.8,0.4l0,0.1c0,0-0.4,0-0.9,0c-0.3,0-0.6-0.1-0.9-0.1c-0.3-0.1-0.6-0.2-1-0.3
									c-0.7-0.2-1.3-0.4-1.8-0.5C126.5,71.6,126.2,71.5,126.2,71.4L126.2,71.4z"/>
								<path id="XMLID_521_" class="st18" d="M121.1,78.7c0,0,0.2,0.2,0.4,0.6c0.3,0.4,0.6,0.9,0.9,1.4c0.2,0.3,0.4,0.5,0.5,0.7
									c0.1,0.2,0.3,0.5,0.3,0.7c0.2,0.4,0.2,0.7,0.2,0.7l0,0c0,0-0.3-0.2-0.5-0.6c-0.1-0.2-0.3-0.4-0.4-0.6
									c-0.1-0.2-0.3-0.5-0.4-0.8c-0.3-0.5-0.5-1.1-0.7-1.5C121.2,79,121.1,78.8,121.1,78.7L121.1,78.7z"/>
								<path id="XMLID_520_" class="st18" d="M124.4,63.5c0,0,0.2-0.2,0.6-0.5c0.3-0.3,0.8-0.7,1.3-1.1c0.2-0.2,0.5-0.4,0.7-0.6
									c0.2-0.2,0.5-0.3,0.7-0.4c0.4-0.2,0.7-0.3,0.7-0.3l0,0c0,0-0.2,0.3-0.5,0.6c-0.2,0.2-0.4,0.3-0.6,0.5
									c-0.2,0.2-0.5,0.3-0.8,0.5c-0.5,0.3-1,0.6-1.4,0.9C124.7,63.4,124.4,63.5,124.4,63.5L124.4,63.5z"/>
								<path id="XMLID_519_" class="st19" d="M126.8,66.9c0,0,0.2-0.1,0.5-0.2c0.3-0.1,0.7-0.2,1.1-0.3c0.2-0.1,0.4-0.1,0.6-0.2
									c0.2,0,0.4,0,0.5,0c0.3,0,0.6,0.1,0.6,0.1l0,0.1c0,0-0.2,0.2-0.5,0.3c-0.2,0.1-0.3,0.1-0.5,0.2c-0.2,0-0.4,0-0.6,0
									c-0.4,0-0.8,0.1-1.2,0.1C127.1,67,126.9,67,126.8,66.9L126.8,66.9z"/>
								<path id="XMLID_518_" class="st19" d="M124.8,76.3c0,0,0.2,0.1,0.5,0.2c0.3,0.1,0.7,0.4,1,0.6c0.2,0.1,0.4,0.2,0.5,0.3
									c0.2,0.1,0.3,0.2,0.4,0.4c0.2,0.2,0.3,0.4,0.3,0.4l0,0c0,0-0.2,0-0.5-0.1c-0.2-0.1-0.3-0.1-0.5-0.3
									c-0.2-0.1-0.3-0.3-0.5-0.4c-0.3-0.3-0.7-0.5-0.9-0.8C124.9,76.5,124.8,76.3,124.8,76.3L124.8,76.3z"/>
							</g>
						</g>
					</g>
					<g id="XMLID_135_">
						<g id="XMLID_180_">
							<g id="XMLID_222_">
								<g id="XMLID_249_" class="st5">
									<path id="XMLID_265_" class="st20" d="M111.9,55.7l-2-2.1c-0.3-0.3-0.7-0.3-1,0l-0.9,0.8c-0.6-0.3-1.1-0.6-1.7-0.8l0.1-1.2
										c0-0.4-0.3-0.7-0.6-0.7l-2.9-0.1c-0.4,0-0.7,0.3-0.7,0.6l-0.1,1.1c-0.7,0.1-1.5,0.4-2.1,0.7l-0.7-0.8c-0.3-0.3-0.7-0.3-1,0
										l-2.1,2c-0.3,0.3-0.3,0.7,0,1l0.6,0.6c-0.4,0.6-0.7,1.3-1,1.9l-0.8,0c-0.4,0-0.7,0.3-0.7,0.6l-0.1,2.9
										c0,0.4,0.3,0.7,0.6,0.7l0.6,0c0.1,0.9,0.4,1.7,0.9,2.5l-0.4,0.4c-0.3,0.3-0.3,0.7,0,1l2,2.1c0.3,0.3,0.7,0.3,1,0l0.3-0.3
										c0.7,0.5,1.5,0.8,2.2,1l0,0.4c0,0.4,0.3,0.7,0.6,0.7l2.9,0.1c0.4,0,0.7-0.3,0.7-0.6l0-0.5c0.9-0.2,1.7-0.5,2.5-1l0.4,0.4
										c0.3,0.3,0.7,0.3,1,0l2.1-2c0.3-0.3,0.3-0.7,0-1l-0.5-0.6c0.4-0.6,0.6-1.3,0.8-2l0.9,0c0.4,0,0.7-0.3,0.7-0.6l0.1-2.9
										c0-0.4-0.3-0.7-0.6-0.7l-1,0c-0.2-0.7-0.5-1.4-0.9-2.1l0.8-0.8C112.1,56.4,112.1,56,111.9,55.7z M106.3,59.2
										c1.3,1.4,1.3,3.7-0.1,5c-1.4,1.3-3.7,1.3-5-0.1c-1.4-1.4-1.3-3.7,0.1-5C102.7,57.7,105,57.8,106.3,59.2z"/>
									<path id="XMLID_262_" class="st20" d="M100.1,65.1l-1.7-2.3c-0.2-0.3-0.6-0.4-0.9-0.1l-1,0.7c-0.5-0.4-1-0.7-1.6-1l0.2-1.2
										c0.1-0.4-0.2-0.7-0.6-0.8l-2.8-0.5c-0.4-0.1-0.7,0.2-0.8,0.6l-0.2,1.1c-0.7,0-1.5,0.2-2.2,0.5l-0.6-0.9
										c-0.2-0.3-0.6-0.4-0.9-0.1l-2.3,1.7c-0.3,0.2-0.4,0.6-0.1,0.9l0.5,0.7c-0.5,0.6-0.9,1.2-1.2,1.8L83,66
										c-0.4-0.1-0.7,0.2-0.8,0.6l-0.5,2.8c-0.1,0.4,0.2,0.7,0.5,0.8l0.6,0.1c0,0.9,0.2,1.8,0.5,2.6L83,73.2
										c-0.3,0.2-0.4,0.6-0.1,0.9l1.7,2.3c0.2,0.3,0.6,0.4,0.9,0.1l0.4-0.3c0.6,0.5,1.3,1,2.1,1.3l-0.1,0.4
										c-0.1,0.4,0.2,0.7,0.6,0.8l2.8,0.5c0.4,0.1,0.7-0.2,0.8-0.6l0.1-0.5c0.9-0.1,1.8-0.3,2.6-0.7l0.4,0.5
										c0.2,0.3,0.6,0.4,0.9,0.1l2.3-1.7c0.3-0.2,0.4-0.6,0.1-0.9L98,75c0.4-0.6,0.8-1.2,1.1-1.9l0.9,0.1c0.4,0.1,0.7-0.2,0.8-0.6
										l0.5-2.8c0.1-0.4-0.2-0.7-0.6-0.8l-1-0.2c-0.1-0.7-0.3-1.5-0.6-2.2L100,66C100.3,65.8,100.3,65.4,100.1,65.1z M94.9,67.3
										c1.5,2,1,4.8-1,6.3c-2,1.5-4.8,1-6.3-1c-1.5-2-1-4.8,1-6.3C90.6,64.8,93.5,65.2,94.9,67.3z"/>
									<path id="XMLID_259_" class="st20" d="M125.4,72.4l-0.5-1.4c-0.1-0.2-0.3-0.3-0.5-0.2l-0.6,0.2c-0.2-0.3-0.4-0.5-0.7-0.8
										l0.3-0.6c0.1-0.2,0-0.4-0.2-0.5l-1.4-0.7c-0.2-0.1-0.4,0-0.5,0.2l-0.3,0.5c-0.4-0.1-0.8-0.1-1.2-0.1l-0.2-0.5
										c-0.1-0.2-0.3-0.3-0.5-0.2l-1.4,0.5c-0.2,0.1-0.3,0.3-0.2,0.5l0.1,0.4c-0.3,0.2-0.6,0.4-0.9,0.7l-0.4-0.2
										c-0.2-0.1-0.4,0-0.5,0.2l-0.7,1.4c-0.1,0.2,0,0.4,0.2,0.5l0.3,0.1c-0.1,0.5-0.2,0.9-0.1,1.4l-0.3,0.1
										c-0.2,0.1-0.3,0.3-0.2,0.5l0.5,1.4c0.1,0.2,0.3,0.3,0.5,0.2l0.2-0.1c0.2,0.4,0.5,0.7,0.8,1l-0.1,0.2
										c-0.1,0.2,0,0.4,0.2,0.5l1.4,0.7c0.2,0.1,0.4,0,0.5-0.2l0.1-0.2c0.5,0.1,0.9,0.1,1.4,0.1l0.1,0.3c0.1,0.2,0.3,0.3,0.5,0.2
										l1.4-0.5c0.2-0.1,0.3-0.3,0.2-0.5l-0.1-0.4c0.3-0.2,0.6-0.5,0.8-0.8l0.4,0.2c0.2,0.1,0.4,0,0.5-0.2l0.7-1.4
										c0.1-0.2,0-0.4-0.2-0.5l-0.5-0.2c0.1-0.4,0.1-0.8,0.1-1.2l0.6-0.2C125.4,72.7,125.5,72.5,125.4,72.4z M122.4,72.6
										c0.4,1.2-0.2,2.6-1.5,3c-1.2,0.4-2.6-0.2-3-1.5c-0.4-1.2,0.2-2.6,1.5-3C120.7,70.7,122,71.4,122.4,72.6z"/>
								</g>
								<g id="XMLID_215_">
									<g id="XMLID_229_">
										<path id="XMLID_236_" class="st21" d="M110.9,52.7l-2-2.1c-0.3-0.3-0.7-0.3-1,0l-0.9,0.8c-0.6-0.3-1.1-0.6-1.7-0.8
											l0.1-1.2c0-0.4-0.3-0.7-0.6-0.7l-2.9-0.1c-0.4,0-0.7,0.3-0.7,0.6l-0.1,1.1c-0.7,0.1-1.5,0.4-2.1,0.7l-0.7-0.8
											c-0.3-0.3-0.7-0.3-1,0l-2.1,2c-0.3,0.3-0.3,0.7,0,1l0.6,0.6c-0.4,0.6-0.7,1.3-1,1.9l-0.8,0c-0.4,0-0.7,0.3-0.7,0.6
											l-0.1,2.9c0,0.4,0.3,0.7,0.6,0.7l0.6,0c0.1,0.9,0.4,1.7,0.9,2.5l-0.4,0.4c-0.3,0.3-0.3,0.7,0,1l2,2.1c0.3,0.3,0.7,0.3,1,0
											l0.3-0.3c0.7,0.5,1.5,0.8,2.2,1l0,0.4c0,0.4,0.3,0.7,0.6,0.7l2.9,0.1c0.4,0,0.7-0.3,0.7-0.6l0-0.5c0.9-0.2,1.7-0.5,2.5-1
											l0.4,0.4c0.3,0.3,0.7,0.3,1,0l2.1-2c0.3-0.3,0.3-0.7,0-1l-0.5-0.6c0.4-0.6,0.6-1.3,0.8-2l0.9,0c0.4,0,0.7-0.3,0.7-0.6
											l0.1-2.9c0-0.4-0.3-0.7-0.6-0.7l-1,0c-0.2-0.7-0.5-1.4-0.9-2.1l0.8-0.8C111.1,53.4,111.1,53,110.9,52.7z M105.3,56.2
											c1.3,1.4,1.3,3.7-0.1,5c-1.4,1.3-3.7,1.3-5-0.1c-1.4-1.4-1.3-3.7,0.1-5C101.7,54.7,104,54.8,105.3,56.2z"/>
										<path id="XMLID_233_" class="st22" d="M99.1,62.1l-1.7-2.3c-0.2-0.3-0.6-0.4-0.9-0.1l-1,0.7c-0.5-0.4-1-0.7-1.6-1l0.2-1.2
											c0.1-0.4-0.2-0.7-0.6-0.8l-2.8-0.5c-0.4-0.1-0.7,0.2-0.8,0.6l-0.2,1.1c-0.7,0-1.5,0.2-2.2,0.5l-0.6-0.9
											c-0.2-0.3-0.6-0.4-0.9-0.1l-2.3,1.7c-0.3,0.2-0.4,0.6-0.1,0.9l0.5,0.7c-0.5,0.6-0.9,1.2-1.2,1.8L82,63
											c-0.4-0.1-0.7,0.2-0.8,0.6l-0.5,2.8c-0.1,0.4,0.2,0.7,0.5,0.8l0.6,0.1c0,0.9,0.2,1.8,0.5,2.6L82,70.2
											c-0.3,0.2-0.4,0.6-0.1,0.9l1.7,2.3c0.2,0.3,0.6,0.4,0.9,0.1l0.4-0.3c0.6,0.5,1.3,1,2.1,1.3l-0.1,0.4
											c-0.1,0.4,0.2,0.7,0.6,0.8l2.8,0.5c0.4,0.1,0.7-0.2,0.8-0.6l0.1-0.5c0.9-0.1,1.8-0.3,2.6-0.7l0.4,0.5
											c0.2,0.3,0.6,0.4,0.9,0.1l2.3-1.7c0.3-0.2,0.4-0.6,0.1-0.9L97,72c0.4-0.6,0.8-1.2,1.1-1.9l0.9,0.1
											c0.4,0.1,0.7-0.2,0.8-0.6l0.5-2.8c0.1-0.4-0.2-0.7-0.6-0.8l-1-0.2c-0.1-0.7-0.3-1.5-0.6-2.2L99,63
											C99.3,62.8,99.3,62.4,99.1,62.1z M93.9,64.3c1.5,2,1,4.8-1,6.3c-2,1.5-4.8,1-6.3-1c-1.5-2-1-4.8,1-6.3
											C89.6,61.8,92.5,62.2,93.9,64.3z"/>
										<path id="XMLID_230_" class="st22" d="M124.4,69.4l-0.5-1.4c-0.1-0.2-0.3-0.3-0.5-0.2l-0.6,0.2c-0.2-0.3-0.4-0.5-0.7-0.8
											l0.3-0.6c0.1-0.2,0-0.4-0.2-0.5l-1.4-0.7c-0.2-0.1-0.4,0-0.5,0.2l-0.3,0.5c-0.4-0.1-0.8-0.1-1.2-0.1l-0.2-0.5
											c-0.1-0.2-0.3-0.3-0.5-0.2l-1.4,0.5c-0.2,0.1-0.3,0.3-0.2,0.5l0.1,0.4c-0.3,0.2-0.6,0.4-0.9,0.7l-0.4-0.2
											c-0.2-0.1-0.4,0-0.5,0.2l-0.7,1.4c-0.1,0.2,0,0.4,0.2,0.5l0.3,0.1c-0.1,0.5-0.2,0.9-0.1,1.4l-0.3,0.1
											c-0.2,0.1-0.3,0.3-0.2,0.5l0.5,1.4c0.1,0.2,0.3,0.3,0.5,0.2l0.2-0.1c0.2,0.4,0.5,0.7,0.8,1l-0.1,0.2
											c-0.1,0.2,0,0.4,0.2,0.5l1.4,0.7c0.2,0.1,0.4,0,0.5-0.2l0.1-0.2c0.5,0.1,0.9,0.1,1.4,0.1l0.1,0.3c0.1,0.2,0.3,0.3,0.5,0.2
											l1.4-0.5c0.2-0.1,0.3-0.3,0.2-0.5l-0.1-0.4c0.3-0.2,0.6-0.5,0.8-0.8l0.4,0.2c0.2,0.1,0.4,0,0.5-0.2l0.7-1.4
											c0.1-0.2,0-0.4-0.2-0.5l-0.5-0.2c0.1-0.4,0.1-0.8,0.1-1.2l0.6-0.2C124.4,69.7,124.5,69.5,124.4,69.4z M121.4,69.6
											c0.4,1.2-0.2,2.6-1.5,3c-1.2,0.4-2.6-0.2-3-1.5c-0.4-1.2,0.2-2.6,1.5-3C119.7,67.7,121,68.4,121.4,69.6z"/>
									</g>
								</g>
							</g>
							<g id="XMLID_197_">
								<circle id="XMLID_221_" class="st22" cx="102.7" cy="58.9" r="3.4"/>
								<circle id="XMLID_220_" class="st4" cx="102.7" cy="58.7" r="1.9"/>
							</g>
						</g>
						<g id="XMLID_136_">
							<g id="XMLID_167_">
								<path id="XMLID_169_" class="st23" d="M90.4,71.7c-1.6,0-3-0.7-3.9-1.9c-0.8-1.1-1-2.4-0.8-3.6c0.3-1.3,1.1-2.4,2.3-3.3
									l11.1-6.7c1.3-0.9,2.6-1.4,3.8-1.4c1.2,0,2.2,0.5,2.9,1.6c0.7,1.1,0.9,2.3,0.5,3.5c-0.4,1.1-1.2,2.1-2.5,3l-10.1,7.8
									C92.8,71.3,91.6,71.7,90.4,71.7z M102.9,55.4c-1,0-2.2,0.4-3.4,1.3l-11.1,6.7c-1,0.7-1.7,1.7-1.9,2.8
									c-0.2,1.1,0,2.2,0.7,3.1c0.7,1,1.9,1.6,3.3,1.6c1,0,2.1-0.3,3-1l10.1-7.8c1.1-0.8,1.9-1.7,2.2-2.7c0.3-1,0.2-1.9-0.4-2.8
									C104.7,55.8,103.9,55.4,102.9,55.4z"/>
							</g>
							<g id="XMLID_157_">
								<path id="XMLID_159_" class="st23" d="M119.3,73.2c-0.9,0-1.9-0.4-3-1.1l-15.9-10.3c-2.1-1.6-2-4-0.9-5.6l0-0.1
									c0.6-0.9,1.8-1.4,3.1-1.4c0.9,0,1.8,0.3,2.6,0.8L119.8,67c2,1.4,2.7,3.3,1.8,5l0,0.1l-0.2,0.2
									C120.9,72.9,120.2,73.2,119.3,73.2z M100.2,56.6L100.2,56.6c-0.9,1.3-1,3.3,0.7,4.7l15.8,10.3c0.9,0.6,1.8,1,2.6,1
									c0.7,0,1.2-0.2,1.6-0.7l0.1-0.2c0.7-1.4,0.1-2.9-1.6-4.1l-14.6-11.4c-0.8-0.5-1.6-0.7-2.1-0.7
									C101.6,55.5,100.7,55.9,100.2,56.6z"/>
							</g>
						</g>
					</g>
				</g>
			</g>
		</g>
	</g>
</g>
</svg>
