<?xml version="1.0" encoding="utf-8"?>
<!-- Generator: Adobe Illustrator 19.0.0, SVG Export Plug-In . SVG Version: 6.00 Build 0)  -->
<svg version="1.1" id="Layer_1" xmlns="http://www.w3.org/2000/svg" xmlns:xlink="http://www.w3.org/1999/xlink" x="0px" y="0px"
	 viewBox="0 0 200 200" style="enable-background:new 0 0 200 200;" xml:space="preserve">
<style type="text/css">
	.st0{fill:#51A0D8;}
	.st1{fill:#D3DDF0;}
	.st2{fill:#FFFFFF;}
	.st3{fill:#F1656A;}
	.st4{fill:#FFE169;}
	.st5{fill:#91CFA5;}
	.st6{fill:#E4E9F6;}
	.st7{fill:#D25560;}
	.st8{fill:#DEE2EC;}
	.st9{fill:#F5959C;}
	.st10{fill:#A1DCF0;}
	.st11{fill:#9BD4B7;}
	.st12{fill:#474756;}
</style>
<g id="XMLID_482_">
	<circle id="XMLID_480_" class="st0" cx="100" cy="100" r="100"/>
	<g id="XMLID_483_">
		<path id="XMLID_560_" class="st1" d="M156,52.6H44c-3.6,0-6.5,2.9-6.5,6.5v81.9c0,3.6,2.9,6.5,6.5,6.5h112c3.6,0,6.5-2.9,6.5-6.5
			V59.1C162.5,55.5,159.6,52.6,156,52.6z M145.2,56.9h2.2c1.2,0,2.2,1,2.2,2.2c0,1.2-1,2.2-2.2,2.2h-2.2c-1.2,0-2.2-1-2.2-2.2
			C143.1,57.9,144,56.9,145.2,56.9z M84.9,56.9h51.7c1.2,0,2.2,1,2.2,2.2c0,1.2-1,2.2-2.2,2.2H84.9c-1.2,0-2.2-1-2.2-2.2
			C82.8,57.9,83.7,56.9,84.9,56.9z M74.2,56.9h2.2c1.2,0,2.2,1,2.2,2.2c0,1.2-1,2.2-2.2,2.2h-2.2c-1.2,0-2.2-1-2.2-2.2
			C72,57.9,73,56.9,74.2,56.9z M65.5,56.9h2.2c1.2,0,2.2,1,2.2,2.2c0,1.2-1,2.2-2.2,2.2h-2.2c-1.2,0-2.2-1-2.2-2.2
			C63.4,57.9,64.3,56.9,65.5,56.9z M56.9,56.9c1.2,0,2.2,1,2.2,2.2c0,1.2-1,2.2-2.2,2.2c-1.2,0-2.2-1-2.2-2.2
			C54.8,57.9,55.7,56.9,56.9,56.9z M50.5,56.9c1.2,0,2.2,1,2.2,2.2c0,1.2-1,2.2-2.2,2.2s-2.2-1-2.2-2.2
			C48.3,57.9,49.3,56.9,50.5,56.9z M44,56.9c1.2,0,2.2,1,2.2,2.2c0,1.2-1,2.2-2.2,2.2c-1.2,0-2.2-1-2.2-2.2
			C41.8,57.9,42.8,56.9,44,56.9z M158.2,78.5v62.5c0,1.2-1,2.2-2.2,2.2h-56H44c-1.2,0-2.2-1-2.2-2.2V78.5V67.7c0-1.2,1-2.2,2.2-2.2
			h56h56c1.2,0,2.2,1,2.2,2.2V78.5z M156,61.2h-2.2c-1.2,0-2.2-1-2.2-2.2c0-1.2,1-2.2,2.2-2.2h2.2c1.2,0,2.2,1,2.2,2.2
			C158.2,60.3,157.2,61.2,156,61.2z"/>
		<path id="XMLID_555_" class="st2" d="M100,143.1h56c1.2,0,2.2-1,2.2-2.2V78.5H100V143.1z M132.3,89.2v-2.2c0-1.2,1-2.2,2.2-2.2
			h15.1c1.2,0,2.2,1,2.2,2.2v2.2v17.2c0,1.2-1,2.2-2.2,2.2h-15.1c-1.2,0-2.2-1-2.2-2.2V89.2z M106.5,89.2v-2.2c0-1.2,1-2.2,2.2-2.2
			h15.1c1.2,0,2.2,1,2.2,2.2v2.2v17.2c0,1.2-1,2.2-2.2,2.2h-15.1c-1.2,0-2.2-1-2.2-2.2L106.5,89.2L106.5,89.2z M108.6,115.1h2.2
			h38.8c1.2,0,2.2,1,2.2,2.2v17.2c0,1.2-1,2.2-2.2,2.2h-38.8h-2.2c-1.2,0-2.2-1-2.2-2.2v-17.2C106.5,116,107.4,115.1,108.6,115.1z"
			/>
		<circle id="XMLID_465_" class="st3" cx="44" cy="59.1" r="2.2"/>
		<circle id="XMLID_464_" class="st4" cx="50.5" cy="59.1" r="2.2"/>
		<circle id="XMLID_463_" class="st5" cx="56.9" cy="59.1" r="2.2"/>
		<g id="XMLID_546_">
			<path id="XMLID_462_" class="st6" d="M65.5,61.2h2.2c1.2,0,2.2-1,2.2-2.2c0-1.2-1-2.2-2.2-2.2h-2.2c-1.2,0-2.2,1-2.2,2.2
				C63.4,60.3,64.3,61.2,65.5,61.2z"/>
			<path id="XMLID_461_" class="st6" d="M74.2,61.2h2.2c1.2,0,2.2-1,2.2-2.2c0-1.2-1-2.2-2.2-2.2h-2.2c-1.2,0-2.2,1-2.2,2.2
				C72,60.3,73,61.2,74.2,61.2z"/>
			<path id="XMLID_460_" class="st6" d="M145.2,61.2h2.2c1.2,0,2.2-1,2.2-2.2c0-1.2-1-2.2-2.2-2.2h-2.2c-1.2,0-2.2,1-2.2,2.2
				C143.1,60.3,144,61.2,145.2,61.2z"/>
			<path id="XMLID_459_" class="st6" d="M156,56.9h-2.2c-1.2,0-2.2,1-2.2,2.2c0,1.2,1,2.2,2.2,2.2h2.2c1.2,0,2.2-1,2.2-2.2
				C158.2,57.9,157.2,56.9,156,56.9z"/>
			<path id="XMLID_458_" class="st6" d="M84.9,61.2h51.7c1.2,0,2.2-1,2.2-2.2c0-1.2-1-2.2-2.2-2.2H84.9c-1.2,0-2.2,1-2.2,2.2
				C82.8,60.3,83.7,61.2,84.9,61.2z"/>
		</g>
		<path id="XMLID_541_" class="st3" d="M156,65.5h-56v12.9h58.2V67.7C158.2,66.5,157.2,65.5,156,65.5z M115.1,74.2h-8.6
			c-1.2,0-2.2-1-2.2-2.2c0-1.2,1-2.2,2.2-2.2h8.6c1.2,0,2.2,1,2.2,2.2C117.2,73.2,116.3,74.2,115.1,74.2z M132.3,74.2h-8.6
			c-1.2,0-2.2-1-2.2-2.2c0-1.2,1-2.2,2.2-2.2h8.6c1.2,0,2.2,1,2.2,2.2C134.5,73.2,133.5,74.2,132.3,74.2z M149.5,74.2h-8.6
			c-1.2,0-2.2-1-2.2-2.2c0-1.2,1-2.2,2.2-2.2h8.6c1.2,0,2.2,1,2.2,2.2C151.7,73.2,150.7,74.2,149.5,74.2z"/>
		<g id="XMLID_537_">
			<path id="XMLID_453_" class="st7" d="M115.1,69.8h-8.6c-1.2,0-2.2,1-2.2,2.2c0,1.2,1,2.2,2.2,2.2h8.6c1.2,0,2.2-1,2.2-2.2
				C117.2,70.8,116.3,69.8,115.1,69.8z"/>
			<path id="XMLID_452_" class="st7" d="M132.3,69.8h-8.6c-1.2,0-2.2,1-2.2,2.2c0,1.2,1,2.2,2.2,2.2h8.6c1.2,0,2.2-1,2.2-2.2
				C134.5,70.8,133.5,69.8,132.3,69.8z"/>
			<path id="XMLID_451_" class="st7" d="M149.5,69.8h-8.6c-1.2,0-2.2,1-2.2,2.2c0,1.2,1,2.2,2.2,2.2h8.6c1.2,0,2.2-1,2.2-2.2
				C151.7,70.8,150.7,69.8,149.5,69.8z"/>
		</g>
		<g id="XMLID_534_">
			<path id="XMLID_450_" class="st8" d="M108.6,108.6h15.1c1.2,0,2.2-1,2.2-2.2V89.2c0,1.2-1,2.2-2.2,2.2h-15.1
				c-1.2,0-2.2-1-2.2-2.2v17.2C106.5,107.7,107.4,108.6,108.6,108.6z"/>
			<path id="XMLID_449_" class="st8" d="M134.5,108.6h15.1c1.2,0,2.2-1,2.2-2.2V89.2c0,1.2-1,2.2-2.2,2.2h-15.1
				c-1.2,0-2.2-1-2.2-2.2v17.2C132.3,107.7,133.3,108.6,134.5,108.6z"/>
		</g>
		<path id="XMLID_448_" class="st9" d="M108.6,91.4h15.1c1.2,0,2.2-1,2.2-2.2v-2.2c0-1.2-1-2.2-2.2-2.2h-15.1c-1.2,0-2.2,1-2.2,2.2
			v2.2C106.5,90.4,107.4,91.4,108.6,91.4z"/>
		<path id="XMLID_447_" class="st10" d="M134.5,91.4h15.1c1.2,0,2.2-1,2.2-2.2v-2.2c0-1.2-1-2.2-2.2-2.2h-15.1c-1.2,0-2.2,1-2.2,2.2
			v2.2C132.3,90.4,133.3,91.4,134.5,91.4z"/>
		<path id="XMLID_446_" class="st8" d="M112.9,117.2v17.2c0,1.2-1,2.2-2.2,2.2h38.8c1.2,0,2.2-1,2.2-2.2v-17.2c0-1.2-1-2.2-2.2-2.2
			h-38.8C112,115.1,112.9,116,112.9,117.2z"/>
		<path id="XMLID_445_" class="st11" d="M108.6,136.6h2.2c1.2,0,2.2-1,2.2-2.2v-17.2c0-1.2-1-2.2-2.2-2.2h-2.2c-1.2,0-2.2,1-2.2,2.2
			v17.2C106.5,135.7,107.4,136.6,108.6,136.6z"/>
		<path id="XMLID_508_" class="st12" d="M100,65.5H44c-1.2,0-2.2,1-2.2,2.2v10.8v62.5c0,1.2,1,2.2,2.2,2.2h56V78.5V65.5z M59.1,72
			h34.5c1.2,0,2.2,1,2.2,2.2s-1,2.2-2.2,2.2H59.1c-1.2,0-2.2-1-2.2-2.2S57.9,72,59.1,72z M48.3,72h2.2c1.2,0,2.2,1,2.2,2.2
			s-1,2.2-2.2,2.2h-2.2c-1.2,0-2.2-1-2.2-2.2S47.1,72,48.3,72z M69.8,84.9h-6.5c-1.2,0-2.2-1-2.2-2.2s1-2.2,2.2-2.2h6.5
			c1.2,0,2.2,1,2.2,2.2C72,84,71,84.9,69.8,84.9z M72,91.4c0,1.2-1,2.2-2.2,2.2h-6.5c-1.2,0-2.2-1-2.2-2.2s1-2.2,2.2-2.2h6.5
			C71,89.2,72,90.2,72,91.4z M48.3,106.5h2.2c1.2,0,2.2,1,2.2,2.2s-1,2.2-2.2,2.2h-2.2c-1.2,0-2.2-1-2.2-2.2S47.1,106.5,48.3,106.5z
			 M46.2,100c0-1.2,1-2.2,2.2-2.2h2.2c1.2,0,2.2,1,2.2,2.2c0,1.2-1,2.2-2.2,2.2h-2.2C47.1,102.2,46.2,101.2,46.2,100z M52.6,115.1
			h2.2c1.2,0,2.2,1,2.2,2.2c0,1.2-1,2.2-2.2,2.2h-2.2c-1.2,0-2.2-1-2.2-2.2C50.5,116,51.4,115.1,52.6,115.1z M54.8,93.5h-2.2
			c-1.2,0-2.2-1-2.2-2.2c0-1.2,1-2.2,2.2-2.2h2.2c1.2,0,2.2,1,2.2,2.2C56.9,92.6,56,93.5,54.8,93.5z M54.8,84.9h-2.2
			c-1.2,0-2.2-1-2.2-2.2s1-2.2,2.2-2.2h2.2c1.2,0,2.2,1,2.2,2.2C56.9,84,56,84.9,54.8,84.9z M50.5,136.6h-2.2c-1.2,0-2.2-1-2.2-2.2
			c0-1.2,1-2.2,2.2-2.2h2.2c1.2,0,2.2,1,2.2,2.2C52.6,135.7,51.6,136.6,50.5,136.6z M54.8,128h-2.2c-1.2,0-2.2-1-2.2-2.2
			c0-1.2,1-2.2,2.2-2.2h2.2c1.2,0,2.2,1,2.2,2.2C56.9,127,56,128,54.8,128z M93.5,136.6H59.1c-1.2,0-2.2-1-2.2-2.2
			c0-1.2,1-2.2,2.2-2.2h34.5c1.2,0,2.2,1,2.2,2.2C95.7,135.7,94.7,136.6,93.5,136.6z M63.4,123.7h6.5c1.2,0,2.2,1,2.2,2.2
			c0,1.2-1,2.2-2.2,2.2h-6.5c-1.2,0-2.2-1-2.2-2.2C61.2,124.7,62.2,123.7,63.4,123.7z M61.2,117.2c0-1.2,1-2.2,2.2-2.2h6.5
			c1.2,0,2.2,1,2.2,2.2c0,1.2-1,2.2-2.2,2.2h-6.5C62.2,119.4,61.2,118.4,61.2,117.2z M93.5,128H78.5c-1.2,0-2.2-1-2.2-2.2
			c0-1.2,1-2.2,2.2-2.2h15.1c1.2,0,2.2,1,2.2,2.2C95.7,127,94.7,128,93.5,128z M93.5,119.4H78.5c-1.2,0-2.2-1-2.2-2.2
			c0-1.2,1-2.2,2.2-2.2h15.1c1.2,0,2.2,1,2.2,2.2C95.7,118.4,94.7,119.4,93.5,119.4z M93.5,110.8H59.1c-1.2,0-2.2-1-2.2-2.2
			c0-1.2,1-2.2,2.2-2.2h34.5c1.2,0,2.2,1,2.2,2.2C95.7,109.8,94.7,110.8,93.5,110.8z M93.5,102.2H59.1c-1.2,0-2.2-1-2.2-2.2
			c0-1.2,1-2.2,2.2-2.2h34.5c1.2,0,2.2,1,2.2,2.2C95.7,101.2,94.7,102.2,93.5,102.2z M93.5,93.5H78.5c-1.2,0-2.2-1-2.2-2.2
			c0-1.2,1-2.2,2.2-2.2h15.1c1.2,0,2.2,1,2.2,2.2C95.7,92.6,94.7,93.5,93.5,93.5z M93.5,84.9H78.5c-1.2,0-2.2-1-2.2-2.2
			s1-2.2,2.2-2.2h15.1c1.2,0,2.2,1,2.2,2.2S94.7,84.9,93.5,84.9z"/>
		<path id="XMLID_423_" class="st4" d="M59.1,76.3h34.5c1.2,0,2.2-1,2.2-2.2s-1-2.2-2.2-2.2H59.1c-1.2,0-2.2,1-2.2,2.2
			S57.9,76.3,59.1,76.3z"/>
		<g id="XMLID_504_">
			<path id="XMLID_422_" class="st11" d="M69.8,80.6h-6.5c-1.2,0-2.2,1-2.2,2.2s1,2.2,2.2,2.2h6.5c1.2,0,2.2-1,2.2-2.2
				C72,81.6,71,80.6,69.8,80.6z"/>
			<path id="XMLID_421_" class="st11" d="M69.8,89.2h-6.5c-1.2,0-2.2,1-2.2,2.2s1,2.2,2.2,2.2h6.5c1.2,0,2.2-1,2.2-2.2
				S71,89.2,69.8,89.2z"/>
		</g>
		<path id="XMLID_420_" class="st4" d="M93.5,97.8H59.1c-1.2,0-2.2,1-2.2,2.2c0,1.2,1,2.2,2.2,2.2h34.5c1.2,0,2.2-1,2.2-2.2
			C95.7,98.8,94.7,97.8,93.5,97.8z"/>
		<g id="XMLID_497_">
			<path id="XMLID_419_" class="st2" d="M93.5,106.5H59.1c-1.2,0-2.2,1-2.2,2.2s1,2.2,2.2,2.2h34.5c1.2,0,2.2-1,2.2-2.2
				S94.7,106.5,93.5,106.5z"/>
			<path id="XMLID_418_" class="st2" d="M93.5,80.6H78.5c-1.2,0-2.2,1-2.2,2.2s1,2.2,2.2,2.2h15.1c1.2,0,2.2-1,2.2-2.2
				C95.7,81.6,94.7,80.6,93.5,80.6z"/>
			<path id="XMLID_417_" class="st2" d="M93.5,89.2H78.5c-1.2,0-2.2,1-2.2,2.2s1,2.2,2.2,2.2h15.1c1.2,0,2.2-1,2.2-2.2
				S94.7,89.2,93.5,89.2z"/>
			<path id="XMLID_415_" class="st2" d="M93.5,115.1H78.5c-1.2,0-2.2,1-2.2,2.2c0,1.2,1,2.2,2.2,2.2h15.1c1.2,0,2.2-1,2.2-2.2
				C95.7,116,94.7,115.1,93.5,115.1z"/>
			<path id="XMLID_414_" class="st2" d="M93.5,123.7H78.5c-1.2,0-2.2,1-2.2,2.2c0,1.2,1,2.2,2.2,2.2h15.1c1.2,0,2.2-1,2.2-2.2
				C95.7,124.7,94.7,123.7,93.5,123.7z"/>
		</g>
		<g id="XMLID_494_">
			<path id="XMLID_413_" class="st11" d="M63.4,119.4h6.5c1.2,0,2.2-1,2.2-2.2c0-1.2-1-2.2-2.2-2.2h-6.5c-1.2,0-2.2,1-2.2,2.2
				C61.2,118.4,62.2,119.4,63.4,119.4z"/>
			<path id="XMLID_412_" class="st11" d="M63.4,128h6.5c1.2,0,2.2-1,2.2-2.2c0-1.2-1-2.2-2.2-2.2h-6.5c-1.2,0-2.2,1-2.2,2.2
				C61.2,127,62.2,128,63.4,128z"/>
		</g>
		<path id="XMLID_411_" class="st4" d="M93.5,132.3H59.1c-1.2,0-2.2,1-2.2,2.2s1,2.2,2.2,2.2h34.5c1.2,0,2.2-1,2.2-2.2
			C95.7,133.3,94.7,132.3,93.5,132.3z"/>
		<g id="XMLID_484_">
			<path id="XMLID_410_" class="st3" d="M48.3,76.3h2.2c1.2,0,2.2-1,2.2-2.2s-1-2.2-2.2-2.2h-2.2c-1.2,0-2.2,1-2.2,2.2
				S47.1,76.3,48.3,76.3z"/>
			<path id="XMLID_408_" class="st3" d="M54.8,80.6h-2.2c-1.2,0-2.2,1-2.2,2.2s1,2.2,2.2,2.2h2.2c1.2,0,2.2-1,2.2-2.2
				C56.9,81.6,56,80.6,54.8,80.6z"/>
			<path id="XMLID_407_" class="st3" d="M54.8,89.2h-2.2c-1.2,0-2.2,1-2.2,2.2s1,2.2,2.2,2.2h2.2c1.2,0,2.2-1,2.2-2.2
				S56,89.2,54.8,89.2z"/>
			<path id="XMLID_404_" class="st3" d="M48.3,102.2h2.2c1.2,0,2.2-1,2.2-2.2c0-1.2-1-2.2-2.2-2.2h-2.2c-1.2,0-2.2,1-2.2,2.2
				C46.2,101.2,47.1,102.2,48.3,102.2z"/>
			<path id="XMLID_403_" class="st3" d="M48.3,110.8h2.2c1.2,0,2.2-1,2.2-2.2c0-1.2-1-2.2-2.2-2.2h-2.2c-1.2,0-2.2,1-2.2,2.2
				C46.2,109.8,47.1,110.8,48.3,110.8z"/>
			<path id="XMLID_402_" class="st3" d="M52.6,119.4h2.2c1.2,0,2.2-1,2.2-2.2c0-1.2-1-2.2-2.2-2.2h-2.2c-1.2,0-2.2,1-2.2,2.2
				C50.5,118.4,51.4,119.4,52.6,119.4z"/>
			<path id="XMLID_401_" class="st3" d="M54.8,123.7h-2.2c-1.2,0-2.2,1-2.2,2.2c0,1.2,1,2.2,2.2,2.2h2.2c1.2,0,2.2-1,2.2-2.2
				C56.9,124.7,56,123.7,54.8,123.7z"/>
			<path id="XMLID_398_" class="st3" d="M50.5,132.3h-2.2c-1.2,0-2.2,1-2.2,2.2s1,2.2,2.2,2.2h2.2c1.2,0,2.2-1,2.2-2.2
				C52.6,133.3,51.6,132.3,50.5,132.3z"/>
		</g>
	</g>
</g>
</svg>
